<?xml version="1.0" encoding="utf-8"?>
<!-- Generator: Adobe Illustrator 26.0.1, SVG Export Plug-In . SVG Version: 6.00 Build 0)  -->
<svg version="1.1" id="Layer_1" xmlns="http://www.w3.org/2000/svg" xmlns:xlink="http://www.w3.org/1999/xlink" x="0px" y="0px"
	 viewBox="0 0 146 131" enable-background="new 0 0 146 131" xml:space="preserve">
<linearGradient id="SVGID_1_" gradientUnits="userSpaceOnUse" x1="30.4742" y1="182.0148" x2="99.5317" y2="-52.1064" gradientTransform="matrix(1 0 0 -1 0 132)">
	<stop  offset="0" style="stop-color:#FE8F9F"/>
	<stop  offset="1" style="stop-color:#FE8F9F;stop-opacity:0"/>
</linearGradient>
<path fill-rule="evenodd" clip-rule="evenodd" fill="url(#SVGID_1_)" d="M134,131H11C-0.3,112.9-3.5,90,4.2,68.3
	C17.6,30.6,59,10.8,96.8,24.2c37.7,13.4,57.5,54.8,44.1,92.6C139.1,121.9,136.8,126.6,134,131z"/>
<path fill="#FAC02E" d="M61.7,19.6h0.2c-0.8-4.4,2.2-5.8,6-5.2c1.9-4.3,7.3-4.1,9.3,0c3.6-0.8,6.8,0.8,6,5
	c3.9-3.9,2.6-12.9-1.3-16.2c-7.6-6.5-22.2-2.7-22.2,8.3C59.8,14.5,60.5,16.8,61.7,19.6z"/>
<path fill="#E44D73" d="M67.9,14.5c-4.5-1.2-6.6,1.2-6,5.6c3-0.3,5.8-1.5,8.8-1.7c4.4-0.3,8.1,0.7,12.3,1.7c1.3-4.2-1.8-6.9-5.8-5.6
	C75.8,10.2,69.2,10.1,67.9,14.5z"/>
<path fill="#FAC02E" d="M46.6,52l1.5-0.2c-0.9-2.8-1-5.3,1.7-7.1c0.9-0.6,2.6-0.9,3.2-1.7c0.7-0.8,0.7-2.9,0.9-3.9
	c6.4,1.2,14.7-1.2,20.3-4.4c1.5-0.8,2.9-1.8,4.1-2.9c0.6-0.6,1.3-1.7,2.2-1.8c2.8-0.5,6.2,1.9,7.9,3.8c1.4,1.5,2.3,3.4,2.7,5.4
	c0.3,1.2,0.2,2.8,0.8,3.8c0.5,0.9,2.3,1.1,3.1,1.6c2.9,1.8,2.9,4.3,1.9,7.3l1.5,0.2c0-9.7,0.1-18.4-6.7-26.1
	c-10.5-11.8-32.9-9.7-41.2,3.4C46.1,36.4,46.6,44,46.6,52z M83,19.6l0.2,0.2L83,19.6z"/>
<path fill="#F4C1AA" d="M53.9,39l-0.6,4.1c4.2-0.5,8-0.5,12.1,0.6c2.4,0.6,4.7,2.2,7.3,2.2c2.6-0.1,4.9-1.6,7.3-2.3
	c3.8-1.1,7.9-1.3,11.8-0.5c-0.4-5.1-2.2-10-7.1-12.3c-1.2-0.6-3.2-1.3-4.5-1c-1,0.2-1.7,1.4-2.4,2c-1.2,1.1-2.6,2.1-4.1,2.9
	C68,38,60.5,39.9,53.9,39z"/>
<path fill="#AC5A27" d="M55.2,42.7v0.2h1.5L55.2,42.7z"/>
<path fill="#06070A" d="M71.6,49.2h1.7c0.2,9.1,10,14.3,17.9,10.1c2.2-1.2,3.7-3.4,4.8-5.5c0.9-1.6,1.6-3.5,1.5-5.4
	c-0.2-4.5-6.1-5.2-9.6-5.6c-3.1-0.3-6.8,0.5-9.7,1.5c-1.6,0.6-3.2,1.6-5,1.7c-2.8,0.2-5.1-1.3-7.8-2c-3.7-1.1-7.8-1.5-11.6-0.7
	c-2.2,0.4-5,1.3-6,3.4c-1.9,3.9,2.3,10.2,5.4,12.3C61,64.1,71.6,58.2,71.6,49.2z"/>
<path fill="#AC5A27" d="M58.9,42.7v0.2h1.7L58.9,42.7z M84.5,42.7v0.2h1.7L84.5,42.7z M88.4,42.7v0.2h1.7L88.4,42.7z M53.9,42.9v0.2
	h0.6L53.9,42.9z M61.5,42.9v0.2h0.6L61.5,42.9z M82.8,42.9v0.2h0.9L82.8,42.9z M90.6,42.9v0.2h0.9L90.6,42.9z M52.9,43.1v0.2h0.6
	L52.9,43.1z M62.8,43.1v0.2h0.6L62.8,43.1z M81.7,43.1v0.2h0.6L81.7,43.1z M91.8,43.2l0.1,0.1L91.8,43.2z M52.4,43.4l0.1,0.1
	L52.4,43.4z M64,43.4l0.1,0.1L64,43.4z M80.7,43.3v0.2h0.6L80.7,43.3z M92.6,43.4l0.1,0.1L92.6,43.4z M51.7,43.6l0.1,0.1L51.7,43.6z
	 M64.9,43.6l0.1,0.1L64.9,43.6z M79.9,43.6l0.1,0.1L79.9,43.6z M93.3,43.6l0.1,0.1L93.3,43.6z M51.1,43.8l0.2,0.2L51.1,43.8z
	 M65.7,43.8l0.1,0.1L65.7,43.8z M79.3,43.8l0.1,0.1L79.3,43.8z M93.9,43.8l0.1,0.1L93.9,43.8z M50.7,44l0.2,0.2L50.7,44z M66.4,44.1
	l0.1,0.1L66.4,44.1z M78.5,44l0.2,0.2L78.5,44z M94.4,44.1l0.1,0.1L94.4,44.1z M50.3,44.2l0.2,0.2L50.3,44.2z M67,44.3l0.1,0.1
	L67,44.3z M77.9,44.2l0.2,0.2L77.9,44.2z M94.7,44.2l0.2,0.2L94.7,44.2z M49.8,44.4l0.2,0.2L49.8,44.4z M67.5,44.4l0.2,0.2
	L67.5,44.4z M77.3,44.5l0.1,0.1L77.3,44.5z M95.1,44.4l0.2,0.2L95.1,44.4z M68.2,44.6l0.2,0.2L68.2,44.6z M76.8,44.6l0.2,0.2
	L76.8,44.6z M95.4,44.7l0.1,0.1L95.4,44.7z M49.2,44.9l0.2,0.2L49.2,44.9z M68.6,44.9l0.2,0.2L68.6,44.9z M76.3,44.9l0.2,0.2
	L76.3,44.9z M95.7,44.9l0.2,0.2L95.7,44.9z M49,45.1l0.2,0.2L49,45.1z M69,45.1l0.2,0.2L69,45.1z M75.8,45.1l0.1,0.1L75.8,45.1z
	 M95.9,45.1l0.2,0.2L95.9,45.1z M48.8,45.3l0.2,0.2L48.8,45.3z M69.7,45.3l0.2,0.2L69.7,45.3z M75.3,45.3l0.2,0.2L75.3,45.3z
	 M96.2,45.3l0.2,0.2L96.2,45.3z M70.2,45.6l0.1,0.1L70.2,45.6z M74.8,45.6l0.1,0.1L74.8,45.6z M96.4,45.5l0.2,0.2L96.4,45.5z
	 M71,45.7v0.2h0.6L71,45.7z M73.5,45.7v0.2h0.6L73.5,45.7z M96.6,45.7l0.2,0.2L96.6,45.7z M48.1,45.9l0.2,0.2L48.1,45.9z M96.8,45.9
	l0.2,0.2L96.8,45.9z M47.9,46.1l0.2,0.2L47.9,46.1z M55,46.2c-1.2,0.2-3.5,0.6-4.1,1.9c-1,2,2.1,6.2,3.4,7.5
	c2.1,1.9,5.6,1.9,8.2,1.4c2.8-0.5,4.7-2.9,5.5-5.5c0.3-0.9,0.6-2.5-0.2-3.2C65.1,45.8,58.5,45.7,55,46.2z M84.1,46.2
	c-1.9,0.3-5.9,0.6-7.1,2.3c-0.8,1.1-0.1,2.9,0.4,4c1.8,4.2,5.7,5.1,9.9,4.5c3.2-0.5,4.9-3,6.2-5.8c0.4-1,1.2-2.6,0.4-3.5
	C92,45.5,86.7,45.9,84.1,46.2z M97.1,46.3l0.1,0.1L97.1,46.3z M47.7,46.6l0.2,0.2L47.7,46.6z M97.3,46.7l0.1,0.1L97.3,46.7z
	 M47.5,47.4l0.1,0.1L47.5,47.4z M97.5,47.2v1.1h0.2L97.5,47.2z M97.5,48.7V50h0.2L97.5,48.7z M71.6,49.2v1.5h0.2L71.6,49.2z"/>
<path fill="#F4C1AA" d="M71.8,49.2c-0.2,9-10.1,14.2-17.9,10.1c-2.7-1.4-4.7-4.8-5.8-7.5c-3.5,0.4-6.3,3.4-4.6,7.1
	c0.6,1.2,2.1,1.7,2.6,2.8c0.7,1.6-0.4,3.6,0.4,5.1c0.7,1.3,2.4,1.3,3.1,0c0.7-1.3,0.3-3.7,0.3-5.2H52c0.6,7.9,7.6,11.8,14.7,13.7
	c2,0.5,4,1.3,6,1.3c5.1-0.1,10.7-2.8,14.9-5.5c1.6-1,3.2-2.2,4-3.9c1.2-2.4,0.5-5.6,3.7-5.6c0,1.5-0.4,3.8,0.2,5.1
	c0.5,1.2,2.4,1.4,3,0.2c0.8-1.4,0.3-4.2,0.3-5.8c3.2-0.8,4.2-5,2.3-7.5c-1.1-1.4-2.4-1.7-4-2c-1.6,2.7-3,6.2-6,7.7
	c-7.7,3.9-17.6-1.1-17.7-10L71.8,49.2z"/>
<path fill="#AC5A27" d="M72,49.2v0.2h1.3L72,49.2z M47.5,49.4V50h0.2L47.5,49.4z M97.2,50.2v0.6h0.2L97.2,50.2z M47.8,50.6l0.1,0.1
	L47.8,50.6z M73.3,50.5v0.6h0.2L73.3,50.5z M97,50.9v0.6h0.2L97,50.9z M48,51.2l0.1,0.1L48,51.2z M71.5,51.5l0.1,0.1L71.5,51.5z
	 M73.5,51.5v0.6h0.2L73.5,51.5z M96.9,51.7l0.1,0.1L96.9,51.7z M48.2,51.9l0.1,0.1L48.2,51.9z M71.2,52.3l0.1,0.1L71.2,52.3z
	 M96.6,52.2l0.2,0.2L96.6,52.2z M48.3,52.4l0.2,0.2L48.3,52.4z M73.8,52.5l0.1,0.1L73.8,52.5z M96.4,52.6l0.2,0.2L96.4,52.6z
	 M48.6,52.8l0.2,0.2L48.6,52.8z M71,52.8l0.2,0.2L71,52.8z M74,53l0.2,0.2L74,53z M96.2,53l0.2,0.2L96.2,53z M48.8,53.3l0.2,0.2
	L48.8,53.3z M70.7,53.5l0.2,0.2L70.7,53.5z M74.3,53.6l0.1,0.1L74.3,53.6z M95.9,53.5l0.2,0.2L95.9,53.5z M49,53.7l0.2,0.2L49,53.7z
	 M70.5,53.9l0.2,0.2L70.5,53.9z M95.7,53.9l0.2,0.2L95.7,53.9z M49.2,54.1l0.2,0.2L49.2,54.1z M74.4,54.1l0.2,0.2L74.4,54.1z
	 M49.4,54.3l0.2,0.2L49.4,54.3z M70.3,54.3l0.2,0.2L70.3,54.3z M95.5,54.3l0.2,0.2L95.5,54.3z M74.6,54.5l0.2,0.2L74.6,54.5z
	 M95.3,54.5l0.2,0.2L95.3,54.5z M49.6,54.8l0.2,0.2L49.6,54.8z M70.1,54.8l0.2,0.2L70.1,54.8z M74.8,55l0.2,0.2L74.8,55z M95.1,55
	l0.2,0.2L95.1,55z M69.9,55.2l0.2,0.2L69.9,55.2z M75.1,55.2l0.2,0.2L75.1,55.2z M50.1,55.4l0.2,0.2L50.1,55.4z M69.7,55.4l0.2,0.2
	L69.7,55.4z M75.3,55.6l0.2,0.2L75.3,55.6z M94.7,55.6l0.2,0.2L94.7,55.6z M69.4,55.8l0.2,0.2L69.4,55.8z M75.5,55.8l0.2,0.2
	L75.5,55.8z M94.4,55.8l0.2,0.2L94.4,55.8z M50.5,56.1l0.2,0.2L50.5,56.1z M69.2,56.1l0.2,0.2L69.2,56.1z M50.7,56.3l0.2,0.2
	L50.7,56.3z M75.7,56.3l0.2,0.2L75.7,56.3z M94.2,56.3l0.2,0.2L94.2,56.3z M69,56.5l0.2,0.2L69,56.5z M75.9,56.5l0.2,0.2L75.9,56.5z
	 M94,56.5l0.2,0.2L94,56.5z M50.9,56.7l0.2,0.2L50.9,56.7z M68.8,56.7l0.2,0.2L68.8,56.7z M51.1,56.9l0.2,0.2L51.1,56.9z M68.6,56.9
	l0.2,0.2L68.6,56.9z M51.4,57.1l0.2,0.2L51.4,57.1z M76.3,57.1l0.2,0.2L76.3,57.1z M51.6,57.3l0.2,0.2L51.6,57.3z M76.6,57.3
	l0.2,0.2L76.6,57.3z M93.4,57.3l0.2,0.2L93.4,57.3z M51.8,57.6l0.2,0.2L51.8,57.6z M76.8,57.6l0.2,0.2L76.8,57.6z M93.1,57.6
	l0.2,0.2L93.1,57.6z M52,57.8l0.2,0.2L52,57.8z M77,57.8l0.2,0.2L77,57.8z M92.9,57.8l0.2,0.2L92.9,57.8z M52.2,58l0.2,0.2L52.2,58z
	 M77.2,58l0.2,0.2L77.2,58z M92.7,58l0.2,0.2L92.7,58z M52.4,58.2l0.2,0.2L52.4,58.2z M77.4,58.2l0.2,0.2L77.4,58.2z M92.5,58.2
	l0.2,0.2L92.5,58.2z M52.6,58.4l0.2,0.2L52.6,58.4z M67.1,58.4l0.2,0.2L67.1,58.4z M92.3,58.4l0.2,0.2L92.3,58.4z M52.9,58.6
	l0.2,0.2L52.9,58.6z M66.9,58.6l0.2,0.2L66.9,58.6z M78.1,58.6l0.2,0.2L78.1,58.6z M92,58.7l0.1,0.1L92,58.7z M53.3,58.9l0.2,0.2
	L53.3,58.9z M66.6,58.9l0.2,0.2L66.6,58.9z M78.3,58.9l0.2,0.2L78.3,58.9z M91.6,58.9l0.2,0.2L91.6,58.9z M53.6,59.1l0.1,0.1
	L53.6,59.1z M66.2,59.1l0.2,0.2L66.2,59.1z M78.7,59.1l0.2,0.2L78.7,59.1z M91.4,59.1l0.1,0.1L91.4,59.1z M53.9,59.3l0.2,0.2
	L53.9,59.3z M65.8,59.3l0.2,0.2L65.8,59.3z M78.9,59.3l0.2,0.2L78.9,59.3z M90.9,59.4l0.1,0.1L90.9,59.4z M54.6,59.5l0.2,0.2
	L54.6,59.5z M65.4,59.5l0.2,0.2L65.4,59.5z M79.5,59.6l0.1,0.1L79.5,59.6z M90.5,59.6l0.1,0.1L90.5,59.6z M55.2,59.8l0.1,0.1
	L55.2,59.8z M64.9,59.8l0.1,0.1L64.9,59.8z M80,59.7l0.2,0.2L80,59.7z M89.8,59.8l0.1,0.1L89.8,59.8z M55.8,60l0.1,0.1L55.8,60z
	 M64.2,60l0.1,0.1L64.2,60z M80.8,60l0.1,0.1L80.8,60z M89.2,60l0.1,0.1L89.2,60z M56.5,60.1v0.2h0.6L56.5,60.1z M63,60.1v0.2h0.6
	L63,60.1z M81.3,60.1v0.2h0.6L81.3,60.1z M88,60.1v0.2h0.6L88,60.1z M57.8,60.4v0.2h1.1L57.8,60.4z M61.3,60.4v0.2h1.1L61.3,60.4z
	 M82.6,60.4v0.2h1.1L82.6,60.4z M86.3,60.4v0.2h1.1L86.3,60.4z M67.7,61.4c-2.1,0.8-0.4,3,0.6,3.9c1.8,1.5,4.5,1.9,6.7,1
	c1.1-0.5,2.4-1.3,3-2.4c0.5-1,0-2.5-1.3-2.5c-1.8-0.1-2.6,2.3-4.5,2C70.6,63.1,69.5,60.7,67.7,61.4z"/>
<path fill="#E44D73" d="M66,75.2l-0.6,7.1c4.7,1.8,9.7,2.2,14.4,0c1.8,3.8,8.6,2.5,11,0c0.7-0.8,2.8-3.3,1.6-4.4
	c-0.5-0.5-1.6-0.1-2.2-0.1c-1.8,0-3.6-0.5-5.4-0.7c-2-0.3-4,0.1-5.6,1.4v-3.2l-6.5,1.4L66,75.2z"/>
<path fill="#F4C1AA" d="M65.1,82.3c-2.4,4.1-7.5,4.5-11,7.4c-6.7,5.6-6.9,12.8-6.9,20.8h8.8c-0.1-3.6-2.7-8.4-0.3-11.6
	c2.8-3.8,8-3.9,12.1-2.4c1.4,0.5,3.1,1.7,4.5,1.8c1,0.1,2.3-0.8,3.2-1.2c1.7-0.7,3.6-1.3,5.4-1.5c3.5-0.5,8.9,1.7,9.2,5.8
	c0.3,3-1.2,6.2-1.3,9.3h8.8c0-7.9-0.3-15.2-6.9-20.8c-3.6-3-8.5-3.4-11.2-7.4c-3,1-5.8,1.8-9,1.4C68.8,83.5,67,82.7,65.1,82.3z"/>
<path fill="#E44D73" d="M56.1,110.6h33c0.2-5.1,3.5-10.6-2.2-13.9c-0.8-0.5-1.7-0.8-2.6-0.9c-1.1-0.2-2.3-0.3-3.4-0.2
	c-1.8,0.2-3.7,0.8-5.4,1.5c-0.8,0.4-2,1.2-2.9,1.2c-1.4,0-3.1-1.3-4.4-1.7c-4-1.4-9.3-1.6-12.2,2C53.3,101.8,55.9,106.8,56.1,110.6z
	"/>
</svg>
