<?xml version="1.0" encoding="utf-8"?>
<!-- Generator: Adobe Illustrator 26.0.1, SVG Export Plug-In . SVG Version: 6.00 Build 0)  -->
<svg version="1.1" id="Layer_1" xmlns="http://www.w3.org/2000/svg" xmlns:xlink="http://www.w3.org/1999/xlink" x="0px" y="0px"
	 viewBox="0 0 156.6 151" enable-background="new 0 0 156.6 151" xml:space="preserve">
<g>
	
		<linearGradient id="SVGID_1_" gradientUnits="userSpaceOnUse" x1="33.9021" y1="116.7734" x2="155.8973" y2="7.2358" gradientTransform="matrix(1 0 0 -1 0 158.9906)">
		<stop  offset="0" style="stop-color:#FE8F9F"/>
		<stop  offset="1" style="stop-color:#FE8F9F;stop-opacity:0"/>
	</linearGradient>
	<path shape-rendering="crispEdges" fill-rule="evenodd" clip-rule="evenodd" fill="url(#SVGID_1_)" d="M79.1,151H32
		c0.1-0.5,0.1-0.9,0.1-1.3c0-5.6,0.8-11.4,1.5-16.9c3.1-22.2,8.6-43.1,18.6-63c2.8,1.1,4.7,3.9,6.2,6.4c3.5,5.9,5.2,12.8,6.9,19.4
		c0.1,0.3,0.1,0.6,0.2,0.9c1.7,6.8,3.3,13.7,4.9,20.5C73.2,128.4,75.9,139.8,79.1,151z M143.4,148c-3.5,1.9-7.6,3-11.9,3H87
		c-0.4-1.2-0.7-2.5-1.1-3.7c-2.9-9.6-4.9-19.4-7-29.2c-2.5-11.9-5-23.7-8.9-35.1c-1.7-5-4-10-7.2-14.2c-0.5-0.6-1.3-1.4-2.2-2.1
		c-1.4-1.3-3-2.7-3.3-4c-0.2-1,0.7-2.2,1.4-3.1c0.2-0.2,0.3-0.4,0.5-0.6c2-2.7,4.1-5.3,6.4-7.8c0.1-0.1,0.2-0.2,0.3-0.3
		c0.7-0.8,1.6-1.8,2.6-1.6c1.7,0.2,3.6,2,5.3,3.4c0.6,0.5,1.1,1,1.6,1.3c5.5,4.2,11,8.6,16.3,13.2c17.3,14.9,34.2,32.4,45,53.1
		c3.8,7.2,7.9,15.6,8.3,24C145,145.5,144.4,146.8,143.4,148z M156.6,59.3V126c0,1.5-0.1,2.9-0.4,4.4c-1.3,2.6-2.8,5.2-4.7,6.5
		c-1.6-11.7-9-23.5-15.5-32.8c-10.9-15.9-24.4-30.2-38.9-42.6c-3.5-3-7.2-5.9-10.9-8.7c-4.1-3.1-8.1-6.2-11.9-9.6
		c1.4-2.1,3.5-3.7,5.5-5.3c0.6-0.4,1.1-0.9,1.6-1.3c0.2-0.2,0.4-0.3,0.6-0.5c0.8-0.7,1.7-1.6,2.7-1.6c1.7-0.1,4.1,1.9,6.1,3.6
		c0.9,0.7,1.7,1.4,2.3,1.8c6.3,3.9,12.8,7.1,19.9,9.2c6.1,1.9,12.4,3.1,18.7,4.3c6,1.1,11.9,2.2,17.8,4c0.5,0.2,1.1,0.3,1.7,0.5
		C152.9,58.1,154.8,58.6,156.6,59.3z M156.6,44v7.2c-2.6-0.6-5.3-1.5-7.9-2.4c-2.8-1-5.7-1.9-8.5-2.6c-3.1-0.7-6.1-1.3-9.2-1.9
		c-9.8-2-19.5-3.9-28.6-8.6c-0.4-0.2-0.8-0.4-1.2-0.6c-3.3-1.7-7.3-3.7-9.5-6.6c3.1-1.8,6.2-3.8,9.2-5.7c4.3-2.8,8.7-5.5,13.3-7.9
		c0.6-0.3,1.4-0.8,2.1-1.2c2.1-1.3,4.6-2.8,6.7-2.8c2.9,0,6.8,3.4,9.7,5.8c0.6,0.5,1.2,1,1.7,1.4C142.4,24.4,151.4,33.8,156.6,44z
		 M105.1,10.7c2.7-1.5,5.4-3,8-4.6c-2.4-1.9-6.4-2.8-9.5-3.4c-0.3-0.1-0.6-0.1-0.9-0.2C94.1,0.6,84.1-1,75.4,0.7
		c-0.6,7.7-0.4,12.9,5.2,18.6c0.2,0.2,0.4,0.4,0.6,0.6c1.2,1.3,2.9,3.2,4.3,3c1.8-0.3,4-2.1,6-3.7c0.9-0.8,1.8-1.5,2.5-1.9
		C97.6,14.9,101.3,12.8,105.1,10.7z M67.2,4.3c0-0.7,0-1.5,0-2.2C57.1,2.5,45.9,8.7,37.6,14.4c-0.3,0.2-0.7,0.4-1,0.7
		c-2.8,1.9-5.9,3.9-7.8,6.7c3.1,1.1,6.1,1.9,9.2,2.7c5,1.4,10,2.7,14.9,5.1c3.1,1.5,6.2,3.4,9.1,5.3c0.4,0.2,0.7,0.5,1.1,0.8
		c1.2,0.9,2.5,1.9,3.7,2c1.9,0.2,4.7-2.7,6.9-4.9c0.8-0.8,1.4-1.5,1.9-1.9c0.1-0.1,0.3-0.2,0.5-0.4c0.7-0.6,1.7-1.3,1.7-2.2
		c0-0.9-1-1.8-1.7-2.5c-0.2-0.2-0.4-0.3-0.5-0.5c-0.3-0.3-0.5-0.6-0.8-0.8c-1.8-1.9-3.6-3.7-5-5.9C67.1,14.3,67.1,9.3,67.2,4.3z
		 M57,49.3c1.5-1.7,3.1-3.4,4.3-5.3c-9.2-6.3-18.6-10.6-29.3-13.2c-0.5-0.1-1.2-0.3-1.9-0.5c-2.8-0.8-6.7-1.8-8.8-1
		c-2.6,1-5.1,5.3-6.8,8.4c-0.4,0.7-0.8,1.3-1.1,1.9C6.3,51.2,2.9,63.2,0.5,76.6c1.9-1.1,3.4-3,5-4.9c0.8-1,1.7-2,2.5-2.9
		c4.7-4.7,10.1-9.1,16.3-11.7c5.6-2.3,11.1-1.9,16.9-0.7c0.7,0.1,1.6,0.5,2.6,0.8c2.1,0.8,4.5,1.6,5.8,1.2c1.1-0.4,2.1-1.9,2.8-3.2
		c0.3-0.5,0.6-0.9,0.8-1.3C54.4,52.3,55.7,50.8,57,49.3z M42.1,72.7c1.2-2.3,2.6-4.7,3-7c-0.9-0.2-1.8-0.4-2.7-0.6
		c-3.7-0.9-7.5-1.8-11.3-1.4c-9.3,1-17.5,10-23.2,16.9c-0.6,0.7-1.3,1.5-2.1,2.3c-2.3,2.4-4.9,5.2-5.5,7.9
		c-0.7,3.8,0.3,8.5,1.1,12.5c0.2,0.7,0.3,1.4,0.4,2.1C4,116.6,8.6,127,14.7,136.5c2.6,4,5.7,8.7,9.5,11.5c0-19.1,4.5-40,10.6-57.9
		c1.7-4.9,3.5-9.9,5.7-14.6C41,74.6,41.6,73.7,42.1,72.7z"/>
</g>
<path fill="#EE5D63" d="M68.3,43.1c-1.2,0-3.9,0.5-4.9-0.2c-0.6-0.4-0.8-1.8-1.3-2.4c-1.1-1.8-3.4-3.1-5.5-2.5
	c-1.5,0.4-2,2.2-1.6,3.6c0.5,1.5,2.2,1.2,2.8,2.5c1.2,2.5,0.4,6.9,0.4,9.6c-0.7,0-1.5-0.1-2.2,0.3c-1.5,1-1.6,3.4-0.2,4.5
	c1.3,1,4,0.5,5.5,0.5c0,7.8-0.9,15.7-2.7,23.2c-0.6,2.5-1,5.8-2.2,8c-0.5,0.8-1.7,0.5-2.4,0.8c-1.4,0.5-2.5,1.5-3,2.9
	c-1.1,2.8,0.4,6.6,3.4,7.2v0.2c-4.6,0-8.7,2.3-8.7,7.7c0,1.8-0.5,4.5,1.5,5.3c1.1,0.4,2.8,0.1,4,0.1h8.7h29.3V114
	c-1.6-0.9-1.7-2.2-1.7-3.8c0-4,1.4-5.8,4.2-8.4c-1.5-0.7-2.9-0.7-4.5-0.7v-0.2c3.1-0.6,4.6-4.5,3.3-7.3c-0.6-1.3-1.6-2.3-3-2.8
	c-0.8-0.3-2,0.1-2.5-0.7c-1.3-2.1-1.7-5.6-2.3-8C80.9,74.5,80,66.6,80,58.8c1.6,0,4.4,0.6,5.7-0.4c1.4-1.1,1.3-3.5-0.2-4.5
	c-0.6-0.4-1.5-0.3-2.2-0.3c0-2.8-0.7-6.8,0.3-9.4c0.6-1.4,2.5-1.1,2.9-2.8c0.4-1.4-0.2-3-1.6-3.4c-2.1-0.6-4.4,0.8-5.5,2.5
	c-0.4,0.7-0.6,2-1.3,2.4c-1,0.7-3.7,0.2-4.9,0.2c0-0.8-0.2-2.1,0.2-2.7c0.6-1.1,2.4-1.6,3.3-2.7c1.8-2.4,2.1-5.8,0.9-8.6
	c-2.9-6.7-14-5.4-14.4,2.4c-0.1,2.4,0.3,4.4,1.7,6.3c0.8,1,2.5,1.4,3.1,2.5C68.5,41,68.3,42.3,68.3,43.1z"/>
<path fill="#FFD75B" d="M109.7,48.7V33.1c-7.3,0.2-9.9,11.6-3,15C107.7,48.6,108.6,48.7,109.7,48.7z"/>
<path fill="#FFBC5C" d="M109.9,33.1v15.8c-1.5,0-2.9-0.4-4.1-1.3c-0.5-0.4-1.3-1.5-2-1.2c-1.3,0.5-2.4,2.9-3,4.1
	c-1.8,3.7-2.3,8.5-1.5,12.6c0.2,1.3,0.8,3.3,1.7,4.3c0.5,0.5,1.8,0.3,2.5,0.3h6.5v13h-5.3c-0.6,0-1.6-0.2-2.1,0.2
	c-0.4,0.4-0.3,1.4-0.3,1.9c0,1.8-0.2,3.5-0.4,5.3c-0.6,5.2-2.5,8.9-5.3,13.1h13.3v13.1h15.6c1.6,0,4.5,0.6,5.7-0.9
	c0.6-0.8,0.5-1.8,0.5-2.8c0-2.4,0-4.5-1.5-6.5c-1-1.4-2.4-2.3-4-2.8c-1.7-0.5-2.8,0-4.1-1.6c-2.9-3.4-3.9-8.7-4.3-13.1
	c-0.2-1.8,0.1-4-0.4-5.8h3.8c1.2,0,2.7,0.3,3.8-0.2c1.6-0.6,2-3,0.9-4.3c-1.1-1.3-2.5-0.5-3.7-1.1c-2.1-1-3.4-4.4-3.5-6.7
	c-0.1-1.9,1.5-3.8,1.9-5.6c0.9-4.3,0.1-9.5-2-13.3c-0.7-1.2-1.5-2.7-2.7-3.3c0.6-1.3,1.3-2.4,1.5-3.9
	C117.9,37.5,114.7,33.3,109.9,33.1z"/>
<path fill="#FFD75B" d="M100.6,67.5c0,2.7-0.8,6.1-3.3,7.5c-1.5,0.9-3.6-0.3-4.5,1.9c-0.6,1.6,0.2,3.6,1.9,3.8
	c4.8,0.8,10.2-0.1,15.1-0.1V67.5H100.6z M120,72.3l0.2,0.2L120,72.3z M121.2,74l0.2,0.2L121.2,74z M121.4,74.2l0.2,0.2L121.4,74.2z
	 M121.5,74.4l0.2,0.2L121.5,74.4z M122.4,75.1l0.2,0.2L122.4,75.1z M125.5,75.4l0.2,0.2L125.5,75.4z M126.5,76.3l0.2,0.2L126.5,76.3
	z M125.1,80.6l0.2,0.2L125.1,80.6z M117.6,80.7l0.2,0.2L117.6,80.7z"/>
<path fill="#FFD75B" d="M109.8,114.2v-13.4H98.3c-2.8,0-5.1-0.3-7.4,1.5c-2.4,1.9-3.2,4.7-3.2,7.7c0,1.3,0,2.6,1,3.5
	c1.5,1.2,4.3,0.7,6.1,0.7H109.8z M125.8,100.8l0.2,0.2L125.8,100.8z M126.5,101l0.2,0.2L126.5,101z"/>
</svg>
