<?xml version="1.0" encoding="utf-8"?>
<!-- Generator: Adobe Illustrator 26.0.1, SVG Export Plug-In . SVG Version: 6.00 Build 0)  -->
<svg version="1.1" id="Layer_1" xmlns="http://www.w3.org/2000/svg" xmlns:xlink="http://www.w3.org/1999/xlink" x="0px" y="0px"
	 viewBox="0 0 156.6 151" enable-background="new 0 0 156.6 151" xml:space="preserve">
<linearGradient id="SVGID_1_" gradientUnits="userSpaceOnUse" x1="7.6025" y1="128.4618" x2="181.0925" y2="17.2308" gradientTransform="matrix(1 0 0 -1 0 151)">
	<stop  offset="0" style="stop-color:#FE8F9F"/>
	<stop  offset="1" style="stop-color:#FC8EAC;stop-opacity:0"/>
</linearGradient>
<path fill-rule="evenodd" clip-rule="evenodd" fill="url(#SVGID_1_)" d="M33.3,77.1l87.3,73.9h5.7L35.9,74.4L33.3,77.1z M130.2,151
	h1.4c2.9,0,5.8-0.5,8.4-1.4L42.8,67.3l-5.2,5.4L130.2,151z M142.5,148.5c2.3-1.1,4.5-2.6,6.3-4.4l-99.2-84l-5.2,5.4L142.5,148.5z
	 M150.5,142.3c1.6-1.9,3-4,4-6.4l-98-83l-5.2,5.4L150.5,142.3z M155.4,133.5c0.7-2.4,1.1-4.9,1.1-7.5v-1.3L63.5,45.8l-5.2,5.4
	L155.4,133.5z M156.6,121.4v-9.7l-86.2-73l-5.2,5.4L156.6,121.4z M156.6,108.5v-9.7L77.3,31.6l-5.2,5.4L156.6,108.5z M156.6,95.5
	v-9.7L84.1,24.4L79,29.8L156.6,95.5z M156.6,82.5V76l-67.3-57l-3.4,3.6L156.6,82.5z M0,0l7.4,17.3L23.2,0.9L19.9,0H0z M7.9,18.6
	L24.6,1.3l63.8,17l-56,58L7.9,18.6z"/>
<path fill="#E44D73" d="M81.7,28.1c-2.7,0.7-2.7,3.8-3.1,5.9c-1.1,6.1-2.3,12.1-3.3,18.2c-1.5,8.3-3.1,16.7-4.7,25
	c-0.5,2.5-2.3,7,0.3,8.9c1.2,0.9,3,0.9,4.4,1.1c3.2,0.6,6.4,1.1,9.6,1.6c11.3,1.8,22.6,3.8,33.9,5.6c3.3,0.5,7.9,0.5,10.8,2.1
	c1.9,1,3.4,3.2,2.9,5.3c-1.6,6.7-11.2,3.2-15.9,2.5c-11.9-1.9-23.8-3.9-35.7-5.9c-2.9-0.5-5.7-1-8.6-1.4c-1.4-0.2-3.1-0.5-4.4,0.4
	c-2,1.3-1.7,4.1,0.2,5.3c2.6,1.6,7.8,1.5,10.8,2.1c11.6,2,23.3,4,34.9,5.8c5.3,0.8,11.5,2.8,16.9,1.8c7-1.4,8.6-7.6,9.7-13.2
	c2.5-12.4,4.6-24.9,7-37.4c1.1-5.6,3.6-12.4,1-17.8c-2.7-5.7-8.6-6.4-14.4-7.5c-12.3-2.2-24.6-4.1-36.9-6.1
	c-3.4-0.6-6.8-1.2-10.2-1.7C85.3,28.3,83.4,27.7,81.7,28.1z"/>
<path fill="#374C61" d="M86.6,35.7c-1.6,0.7-1,2.6,0.4,3c3.7,1.1,7.8,1.3,11.6,1.9c6.5,1.1,13,2.2,19.5,3.2c2.4,0.4,4.8,0.8,7.2,1.2
	c1,0.2,2.3,0.5,3.1-0.1c1.1-0.8,0.6-2.2-0.5-2.7c-2-0.9-4.8-0.9-7-1.2c-8.2-1.5-16.5-2.6-24.7-4.1c-2.2-0.4-4.4-0.7-6.6-1.1
	C88.6,35.7,87.5,35.3,86.6,35.7z"/>
<path fill="#374C61" d="M92.4,44.9c-1.6,0.3-1.8,2.3-0.4,3c1.7,0.8,4.2,0.8,6,1.1c4.9,0.9,9.8,1.6,14.6,2.4c1.7,0.3,5.2,1.5,6.8,0.8
	c1.6-0.7,1.1-2.6-0.4-3.1c-5.8-1.6-12.3-2-18.3-3C98.5,45.7,94.7,44.4,92.4,44.9z M130.1,112.4c-4,0-7.7-0.5-11.6-1.1
	c-1.8-0.3-3.8-1-5.6-0.8c-10.1,1-20.5,3.3-30.5,5.1c-3,0.5-6,1-9,1.5c-1.4,0.2-3,0.7-4.4,0.6c-4.6-0.5-6.9-6-3-8.8
	c1.6-1.2,3.5-1.2,5.4-1.6c3.6-0.6,7.2-1.5,10.8-1.8v-0.2c-3.6-0.4-7.1-1.1-10.6-1.8c-1.8-0.3-3.6-0.5-4.6-2.2
	c-0.9-1.5,0-3.4,1.6-4.2c0.6-0.3,1.7-0.2,2.1-0.8c1.2-2.1,1.4-6.2,1.7-8.6c0.1-1.1-1-1.3-1.7-2.1c-0.8-0.8-1-1.8-0.9-2.8
	c1.1-12.5,5.8-24.7,6.9-37.2c-3.4,0.1-6.9,1-10.2,1.6c-6.6,1.1-14,1.2-17.8,7.2c-2.8,4.4-1.3,9.2-0.4,13.9c1.6,8.5,3.2,17,4.8,25.5
	c1.1,5.6,2,11.3,3.2,16.9c0.9,4.4,1.5,8.2,5.5,11.1c4.1,3,8.9,2.2,13.6,1.5c8.1-1.3,16.2-2.5,24.3-4c7.5-1.3,15-2.5,22.5-3.7
	C125,115.3,128.9,115.4,130.1,112.4z"/>
<path fill="#FFD75B" d="M84.9,53.9c-1.4,0.5-1.4,2.6-1.6,3.8c-0.7,3.6-1.3,7.3-2.1,10.9c-0.2,1.2-1.1,3.3,0,4.2
	c0.7,0.6,1.8,0.6,2.7,0.8c2,0.3,4,0.7,6,1c7.2,1.1,14.4,2.4,21.7,3.6c2.1,0.3,6.3,1.9,8.2,1c1.3-0.6,1.3-2.8,1.5-4
	c0.7-3.6,1.3-7.3,2.1-10.9c0.2-1.2,1-3.1-0.2-4.1c-1.6-1.3-5.7-1.2-7.8-1.6c-7.1-1.3-14.3-2.3-21.5-3.5c-2-0.4-4-0.7-6-1
	C87,54,85.8,53.6,84.9,53.9z"/>
<path fill="#F3EDCE" d="M72.6,87.2c-0.5,0.3-0.5,1.4-0.6,1.9c-0.4,1.8-0.7,3.6-1,5.4c-0.1,0.6-0.6,1.8,0.1,2.1
	c1.1,0.6,2.9,0.5,4.1,0.8c3.3,0.6,6.7,1.2,10,1.7c10.4,1.6,20.7,3.5,31.1,5.1c4,0.6,11,3.3,14.4,0.4c2.8-2.4,1.8-7.1-1.8-8.3
	c-4.1-1.4-9-1.6-13.2-2.3c-9.8-1.6-19.5-3.2-29.3-4.9c-3.4-0.6-6.8-1.1-10.2-1.7C75.5,87.4,73.4,86.7,72.6,87.2z"/>
<path fill="#F3EDCE" d="M112.6,110.5c-3.4-1.4-8.3-1.5-12-2.1c-5.9-0.9-12.3-2.8-18.3-3c-2.3-0.1-4.9,0.7-7.2,1.1
	c-2.6,0.5-5.8,0.5-8.2,1.5c-2.7,1.2-3.9,4.6-2.2,7.1c2.7,3.9,8.7,1.7,12.6,1.1C89.1,114.5,100.8,111.9,112.6,110.5z"/>
</svg>
