<?xml version="1.0" encoding="utf-8"?>
<!-- Generator: Adobe Illustrator 26.0.1, SVG Export Plug-In . SVG Version: 6.00 Build 0)  -->
<svg version="1.1" id="Layer_1" xmlns="http://www.w3.org/2000/svg" xmlns:xlink="http://www.w3.org/1999/xlink" x="0px" y="0px"
	 viewBox="0 0 157 151" enable-background="new 0 0 157 151" xml:space="preserve">
<linearGradient id="SVGID_1_" gradientUnits="userSpaceOnUse" x1="-21.9999" y1="158.231" x2="153.3065" y2="24.199" gradientTransform="matrix(1 0 0 -1 0 151)">
	<stop  offset="0" style="stop-color:#FC8EAC"/>
	<stop  offset="1" style="stop-color:#FC8EAC;stop-opacity:0"/>
</linearGradient>
<path fill-rule="evenodd" clip-rule="evenodd" fill="url(#SVGID_1_)" d="M73.2,151c0.4-5.4,0.8-10.7,1.6-16
	c-6.9,2.9-14.1,5.2-21.3,7.6l0,0c-1.7,0.6-3.4,1.1-5,1.7c-0.7,0.2-1.5,0.5-2.2,0.8c-2.9,1.1-6,2.4-8.8,1.3c-2.3-1-3.5-3.2-4.6-5.4
	c-0.1-0.3-0.3-0.6-0.4-0.9c-2.4-4.7-4.8-9.5-6.9-14.3C17.2,107.2,9.2,88,4.2,68.1c-0.6-2.3-1.2-4.5-1.8-6.8l0,0
	c-0.5-1.9-1-3.8-1.5-5.7c-0.1-0.2-0.1-0.4-0.2-0.6c-0.6-2.3-1.2-4.6-0.3-6.9c1-2.5,3.2-3.6,5.4-4.6h0l0,0h0c0.3-0.2,0.7-0.3,1-0.5
	c2.2-1.1,4.3-2.1,6.5-3.2l0,0c2.2-1.1,4.3-2.1,6.5-3.2c18.4-9.2,37.5-17,56.5-24.8c1.2-0.5,2.3-1,3.5-1.4C89.1,6.6,98.7,3.1,108.3,0
	h21c0.3,0.5,0.5,1,0.7,1.5l0,0c0.1,0.2,0.2,0.3,0.2,0.5c0.9,1.7,1.7,3.5,2.6,5.3l0,0c1,2.1,2,4.2,3.1,6.2
	c8.7,17.1,15.1,35.6,20.7,54v31.9c-0.4,0.2-0.8,0.4-1.2,0.6c-0.9,0.4-1.7,0.8-2.5,1.2c-8.4,4.5-17.1,8.7-25.8,12.3
	c4.1,4.5,8.8,8.6,13.5,12.7h0c4.5,3.9,8.9,7.8,13,12.1c-2.3,4.1-5.6,7.4-9.7,9.7c-1.1-1.2-2.2-2.4-3.2-3.5l0,0v0l0,0
	c-0.9-1.1-1.8-2-2.5-2.7c-0.2-0.2-0.5-0.5-0.8-0.9c-1.3-1.4-3-3.3-4.5-2.9c-2.6,0.6-5.2,1.8-7.8,3l0,0l0,0l0,0l0,0l0,0
	c-1.2,0.6-2.4,1.1-3.6,1.6l-20.6,8.5H73.2z M125,129.4l-38.3,15.9c-0.2-2.7,0.1-5.6,0.3-8.5l0,0l0,0c0.1-0.9,0.2-1.7,0.3-2.6
	c0-0.3,0-0.6,0-0.9c0-1.1,0.1-2.3,0.6-3.1c0.9-1.3,3.4-2,5.3-2.4c0.5-0.1,0.9-0.2,1.2-0.3c4.5-1.4,9.4-3.5,13.6-5.6
	c0.4-0.2,0.8-0.5,1.3-0.8c1.5-0.9,3.5-2.1,4.9-1.8c0.9,0.2,1.7,1.2,2.5,2c0.3,0.3,0.5,0.5,0.7,0.8c0.7,0.7,1.4,1.3,2.2,2l0,0l0,0
	C121.6,125.7,123.5,127.4,125,129.4z"/>
<path fill="#EE5D63" d="M92.8,23.1c-9.9,1.2-17.9,7.8-20.9,17.1c-0.3,0.8-1.6,7.8-3,15.3c-1.4,7.6-2.6,14-2.6,14.2l-0.1,0.5h-5.7
	h-5.7v4.2v4.2h4.9c3.9,0,4.9,0.1,4.9,0.3c0,0.1-1.1,6.2-2.4,13.5c-2.6,14.4-2.7,14.8-4.6,17.7c-1.6,2.5-4.3,4.7-7,5.9
	c-1.5,0.6-4.1,1.3-5.4,1.3H44v4.3v4.4l1.7-0.1c7.7-0.6,14.6-4.6,18.9-11c1.4-2.2,2.7-4.7,3.3-7.1c0.2-0.8,1.5-7.6,2.9-15
	c1.3-7.4,2.5-13.6,2.5-13.8c0.1-0.3,0.5-0.3,4.7-0.3h4.6v-4.2v-4.2h-3.8c-3.4,0-3.8,0-3.8-0.3c0-0.6,4.6-25.7,4.9-26.8
	c1.2-4.1,4.9-8.3,9-10.2c1.6-0.7,4.1-1.3,5.5-1.3h1v-4.3V23l-1,0C93.9,23,93.1,23.1,92.8,23.1z"/>
<path fill="#FFBC5C" d="M95.6,47.3c-8.7,14.3-8.7,40,0,54.3l0.7,1.2l3.3-2.5c1.8-1.3,3.3-2.5,3.4-2.6c0.1-0.1-0.2-0.9-0.7-1.8
	c-1.8-3.3-3.3-8.4-4.1-13.4c-0.5-3.5-0.5-12.8,0-16.3c0.8-5,2.3-10,4.1-13.4c0.7-1.4,0.8-1.7,0.6-1.9c-0.1-0.1-1.7-1.3-3.4-2.6
	l-3.2-2.3L95.6,47.3z"/>
<path fill="#FFBC5C" d="M136.3,48.7c-1.8,1.4-3.4,2.5-3.4,2.6c0,0,0.3,0.8,0.8,1.7c1.8,3.3,3.3,8.4,4.1,13.3
	c0.5,3.1,0.6,10.1,0.3,13.4c-0.6,6.4-2.1,12.1-4.4,16.3c-0.5,0.9-0.8,1.7-0.7,1.8c0.1,0.1,1.6,1.2,3.4,2.6l3.3,2.4l0.7-1.2
	c8.1-13.4,8.7-37.1,1.3-51.9C139.6,45.6,140.2,45.7,136.3,48.7z"/>
<path d="M119.5,64.7c-2.5,3.5-2.5,3.5-2.9,3.1c-0.2-0.2-1.3-1.8-2.5-3.4c-1.2-1.6-2.3-3-2.4-3c-0.2,0-5.8,4-6.5,4.6
	c-0.3,0.3-0.2,0.6,3,4.9c3.3,4.5,3.3,4.6,3,5.1c-0.2,0.3-1.7,2.4-3.3,4.6c-1.7,2.3-3,4.2-2.9,4.3c0.4,0.3,6.4,4.7,6.6,4.7
	c0.1,0.1,1.4-1.4,2.7-3.3c1.3-1.9,2.5-3.4,2.6-3.3c0.1,0,1.2,1.6,2.5,3.4c1.3,1.8,2.5,3.3,2.5,3.3c0.2,0,6.8-4.8,6.8-5
	c0-0.1-1.2-1.8-2.6-3.8c-1.5-2-3-4-3.3-4.5l-0.7-0.9l3.3-4.5c1.8-2.5,3.3-4.6,3.3-4.7c0-0.1-0.6-0.6-1.3-1c-0.7-0.5-2.2-1.6-3.4-2.5
	l-2.2-1.6L119.5,64.7z"/>
</svg>
