<?xml version="1.0" encoding="utf-8"?>
<!-- Generator: Adobe Illustrator 26.0.1, SVG Export Plug-In . SVG Version: 6.00 Build 0)  -->
<svg version="1.1" id="Layer_1" xmlns="http://www.w3.org/2000/svg" xmlns:xlink="http://www.w3.org/1999/xlink" x="0px" y="0px"
	 viewBox="0 0 156.6 151" enable-background="new 0 0 156.6 151" xml:space="preserve">
<g>
	
		<linearGradient id="SVGID_1_" gradientUnits="userSpaceOnUse" x1="12.6847" y1="143.1172" x2="155.1846" y2="-0.3828" gradientTransform="matrix(1 0 0 -1 0 152)">
		<stop  offset="0" style="stop-color:#FC8EAC"/>
		<stop  offset="1" style="stop-color:#FC8EAC;stop-opacity:0"/>
	</linearGradient>
	<path shape-rendering="crispEdges" fill-rule="evenodd" clip-rule="evenodd" fill="url(#SVGID_1_)" d="M116.6,0l17.9,39.7l22,3.6
		V126c0,3.3-0.6,6.4-1.8,9.3l-35.1-5.8L99.6,151H74l-14.2-31.4L0,109.7l37.3-39.9L14.8,19.9l59.9,9.9L102.6,0H116.6z"/>
</g>
<path fill="#FFD75B" d="M81,31.8c-3.9-3.1-10.9-3.1-12.6,2.6c-5.8-3.3-10.7,0.8-11.7,6.5c-5.6-1.7-10.5,4.3-8.9,9.6
	c1,3.1,3.3,3.4,5.2,5.4c1.1-0.5,2.4,0.2,3.5,0.6c2.5,0.7,6.1,2.8,8.7,2.5c3.9-0.4,7.4-3.1,11.3-3.4c3.8-0.3,7.9,3.1,11.7,3.4
	c3.8,0.3,7.9-3.1,11.7-3.4c3.7-0.3,7.9,2.8,11.5,3.4c2.5,0.4,6.6-1.8,8.9-2.6c1.1-0.4,2.4-1,3.5-0.5c1.9-2,4.2-2.4,5.2-5.4
	c1.7-5.3-3.3-11.2-8.9-9.6c-1.1-5.7-6-9.8-11.7-6.5c-1.7-5.8-8.7-5.7-12.6-2.6C94,24.1,82.9,24.1,81,31.8z"/>
<path fill="#EE5D63" d="M53.2,55.5l1.7,37h67l1.7-37c-3.9,0.6-7.9,3.5-11.7,3.5c-4,0-7.9-3.7-12-3.4c-3.8,0.3-7.8,3.6-11.6,3.4
	c-3.9-0.2-7.5-3.1-11.4-3.4c-4-0.3-7.9,3.2-11.9,3.4c-1.1,0.1-2.3-0.6-3.3-0.9C58.9,57.2,56,55.9,53.2,55.5z"/>
<path fill="#FFD75B" d="M53.2,59.4v0.9h0.2L53.2,59.4z M123.4,59.4v0.9h0.2L123.4,59.4z M53.5,63.9l0.1,0.1L53.5,63.9z M123.2,64
	l0.2,0.2L123.2,64z M74.3,70.5c-1,0.6-0.7,2.1-0.7,3v8.3c0,0.9-0.3,2.5,0.7,3c1.5,0.9,4.8,0.2,6.5,0.2h15.7c1.6,0,4.7,0.6,6.1-0.2
	c1-0.6,0.7-2.1,0.7-3v-8.3c0-0.9,0.3-2.5-0.7-3c-1.4-0.8-4.5-0.2-6.1-0.2H80.8C79.1,70.3,75.8,69.7,74.3,70.5z"/>
<path fill="#D0D9EF" d="M33.4,92.7c-0.9,0.4-0.7,1.6-0.7,2.4c0,2.4-0.3,5,0,7.4c0.4,2.7,4.4,0.1,5.3,2.4c0.5,1.3,0.1,3.2,0.1,4.6
	v10.4c0,2.3-0.2,5.2,2.6,6c3,0.9,7.1,0.1,10.2,0.1h21.8c2.8,0,8.4,1.1,10.6-0.7c1.7-1.4,1.3-3.6,1.3-5.6v-11.1
	c0-1.3-0.4-3.3,0.7-4.3c1-0.9,2.9-0.5,4.1-0.5c3.1,0,2.6,2.9,2.6,5.2v11.1c0,1.6-0.3,3.5,0.9,4.8c2,2.2,7.4,1.1,10.2,1.1h23.9
	c2.7,0,7.4,0.9,9.8-0.5c2.1-1.3,1.7-3.9,1.7-6v-10c0-1.3-0.4-3.3,0.1-4.6c0.9-2.3,4.9,0.2,5.3-2.4c0.4-2.3,0-5,0-7.4
	c0-0.8,0.2-2-0.7-2.4c-1.9-0.9-5.7-0.2-7.8-0.2h-18.7H57.3h-17C38.4,92.5,35.1,91.9,33.4,92.7z"/>
<path fill="#EE5D63" d="M46.9,100c-1.5,0.5-1.1,2.6-1.1,3.8v10.7c0,1-0.4,3,0.5,3.8c1.3,1.1,5.4,0.4,7.1,0.4h16.1
	c1.9,0,5.1,0.6,6.9-0.2c1.3-0.6,0.9-2.8,0.9-4V104c0-1.1,0.4-3-0.7-3.8c-1.5-1.1-5.5-0.4-7.4-0.4H54C51.9,99.9,48.9,99.4,46.9,100z"
	/>
<path fill="#6BA6DD" d="M100.8,100c-1.7,0.5-1.3,2.4-1.3,3.8v10.7c0,1.1-0.3,3,0.7,3.8c1.5,1.1,5.4,0.4,7.1,0.4h15.9
	c2,0,5.1,0.6,6.9-0.2c1.3-0.6,0.9-2.8,0.9-4v-10.7c0-1.1,0.4-3-0.7-3.7c-1.7-1-5.6-0.3-7.6-0.3h-15C105.6,99.9,102.9,99.4,100.8,100
	z"/>
<path fill="#FFD75B" d="M45.8,117.7L46,118L45.8,117.7z"/>
<path fill="#FE8F9F" d="M105.2,70.5l0.2,0.2L105.2,70.5z M108.4,70.5l0.2,0.2L108.4,70.5z M105.6,70.7l0.2,0.2L105.6,70.7z
	 M108,70.7l0.2,0.2L108,70.7z"/>
<path fill="#0B936C" d="M106,71l0.2,0.2L106,71z"/>
<path fill="#FE8F9F" d="M106.2,71l0.2,0.2L106.2,71z M107.3,71l0.2,0.2L107.3,71z"/>
<path fill="#0B936C" d="M107.6,71l0.2,0.2L107.6,71z"/>
</svg>
