<?xml version="1.0" encoding="utf-8"?>
<!-- Generator: Adobe Illustrator 26.0.1, SVG Export Plug-In . SVG Version: 6.00 Build 0)  -->
<svg version="1.1" id="Layer_1" xmlns="http://www.w3.org/2000/svg" xmlns:xlink="http://www.w3.org/1999/xlink" x="0px" y="0px"
	 viewBox="0 0 156.6 151" enable-background="new 0 0 156.6 151" xml:space="preserve">
<g>
	
		<linearGradient id="SVGID_1_" gradientUnits="userSpaceOnUse" x1="56.4668" y1="136.1847" x2="172.2316" y2="-9.3937" gradientTransform="matrix(1 0 0 -1 0 159)">
		<stop  offset="0" style="stop-color:#FE8F9F"/>
		<stop  offset="1" style="stop-color:#FE8F9F;stop-opacity:0"/>
	</linearGradient>
	<path shape-rendering="crispEdges" fill-rule="evenodd" clip-rule="evenodd" fill="url(#SVGID_1_)" d="M87.7,8.7L87.7,8.7L87.7,8.7
		c-2.3,1.5-4.7,3-7,4.5c-0.7,0.4-1.5,0.9-2.3,1.3c-1.8,1-3.7,2-4.9,3.4c-0.8,0.8-1.2,2.3,0.4,2.6c2.3,0.4,6.3-2.6,9.2-4.8
		c1-0.7,1.8-1.3,2.4-1.7c1.8-1.1,3.6-2.2,5.4-3.4l0,0c4.7-2.9,9.5-5.9,14.2-8.9c0.4-0.3,0.9-0.6,1.5-1.1c0.3-0.2,0.5-0.4,0.8-0.6
		h8.1c0,0,0,0,0,0l0,0v0c0.2,0.3,0.4,0.6,0.6,0.8c0.9,1.1,1.8,2.2,2.7,3.4c2.2,2.6,4.4,5.3,5.8,8.1c-5.2,3.4-10.5,6.7-15.8,10v0l0,0
		c-4.7,2.9-9.5,5.9-14.1,8.9c-0.2,0.1-0.6,0.4-1.1,0.7l0,0c-2.7,1.5-8.4,4.7-6.4,6.3c1.7,1.4,6.4-2,8.9-3.9c0.5-0.4,0.9-0.7,1.2-0.8
		c2.3-1.5,4.7-3.1,7-4.7l0,0c7.3-4.9,14.8-10,22.6-13.7l11.8,15.2c-6.9,5.1-14.5,9.7-22.1,14.2c-2.5,1.5-5,3-7.5,4.5
		c-0.2,0.2-0.7,0.4-1.2,0.7v0c-2.7,1.5-8.2,4.5-7,6.2c1.3,2,6.3-1.5,8.8-3.3c0.5-0.4,0.9-0.6,1.2-0.8c3.2-2,6.4-4.1,9.6-6.3
		c6.6-4.4,13.3-9,20.4-12.4l11.9,15.6c-7.7,3.7-15.1,8.7-22.3,13.5c-2.6,1.7-5.2,3.5-7.7,5.1c-0.2,0.1-0.6,0.3-1,0.6l0,0
		c-2.7,1.5-8.9,5.1-6.6,6.5c1.8,1.1,6-1.9,8.5-3.8v0c0.7-0.5,1.2-0.9,1.6-1.1c4.2-2.6,8.3-5.2,12.4-7.9c5.7-3.6,11.3-7.3,17.1-10.7
		c0.6,0.9,1.2,1.8,1.8,2.7v38.4c-0.8,1-1.6,2-2.5,3c-0.3,0.4-0.7,0.7-1.1,1.1c-1.1,1-2.4,2.1-2.4,3.5c0,4.3,1.9,9.2,3.6,13.9h0l0,0
		c0.8,2.1,1.6,4.2,2.1,6.1l0.2,0.7v6.2c0,11.9-8.2,21.8-19.3,24.4c-0.4-1-0.7-1.9-1.1-2.9c-0.3-0.6-0.4-1.4-0.6-2.2l0,0
		c-0.4-1.7-0.8-3.5-2.1-4.4c-1.8-1.3-4.6-2-7.1-2.7c-1-0.3-1.9-0.5-2.8-0.8c-5.4-1.7-10.8-3.5-16.1-5.3c-0.7-0.2-1.5-0.5-2.2-0.8h0
		c-2-0.8-4.2-1.6-6.3-1.7c-2.4-0.1-4.8,0.3-7.3,0.8c-2.4,0.4-4.8,0.9-7.3,0.8c-11.9-0.3-26.1-6.7-31.4-16.9
		c7.5-4.4,14.8-9.1,22.2-13.8l0,0c2-1.3,3.9-2.5,5.9-3.8c0.1-0.1,0.3-0.2,0.5-0.3l0,0c2.2-1.3,9.6-5.8,6-6.7c-1.8-0.4-4.5,1.6-6.5,3
		c-0.5,0.4-1,0.7-1.3,1c-3.3,2.2-6.8,4.3-10.2,6.4h0c-3.4,2.1-6.8,4.2-10.2,6.4c-0.4,0.2-0.9,0.6-1.4,1c-2.1,1.6-5.3,3.9-7,3.5
		c-1.2-0.3-2.3-1.9-3.1-3.1c-0.2-0.3-0.4-0.6-0.6-0.9c-1.1-1.4-2.2-2.8-3.2-4.2c-1.7-2.2-3.3-4.3-4.9-6.5c9.2-6,18.6-11.9,28-17.6
		c0.2-0.1,0.5-0.3,0.8-0.5c2.5-1.4,8.3-4.6,6.3-6.3c-1.6-1.3-5.7,1.7-8.1,3.4l0,0c-0.6,0.5-1.2,0.8-1.5,1c-3.4,2-6.7,4.2-10,6.5
		c-5.7,3.8-11.5,7.7-17.7,10.7L25.4,78.4c6.9-3.3,13.4-7.7,19.8-12.1l0,0c2.8-1.9,5.5-3.7,8.2-5.4c0.1-0.1,0.4-0.2,0.7-0.4l0,0
		c2.4-1.4,8.6-5,5.8-6.3c-1.9-0.8-5.9,2.1-8.3,3.9h0c-0.6,0.4-1.1,0.8-1.5,1c-2.2,1.4-4.3,2.9-6.6,4.4C36.9,68,30,72.7,22.9,76.2
		L11.4,60.5c7.5-4.4,14.8-9.1,22.2-13.8l0,0c2-1.3,3.9-2.5,5.9-3.7c0.1-0.1,0.3-0.2,0.5-0.3c2.2-1.3,9.3-5.6,5.9-6.6
		c-2-0.6-5.5,2-7.9,3.8c-0.7,0.5-1.4,1-1.8,1.3c-2.7,1.6-5.4,3.6-8.2,5.6l0,0c-6.1,4.3-12.6,8.9-19.2,11.1c-0.5-0.7-0.9-1.4-1.4-2.1
		l0,0c-2.2-3.4-4.4-6.6-5.5-10.6C0.8,41.4-0.1,37.9,0,34C0.5,17.4,12.9,8.4,26.3,0h75.1C96.8,2.9,92.3,5.8,87.7,8.7z"/>
</g>
<path fill="#D93131" d="M87.3,34.5c1.9,2.8,1.8,7.2,2.4,10.5c1,6.1,2.2,12.1,3.2,18.2c0.4,2.8,1.6,6,1.2,8.8
	c-0.5,3.3-3.1,6.5-6.4,7.9c1.1,0.3,2.4-0.4,3.4-0.8c3.2-1.3,6.1-4.3,6.6-7.5c0.5-3.6-0.8-7.6-1.4-11.2c-1.1-6-2-12.1-3.2-18.1
	c-0.4-2-0.8-4-1.1-6c-0.1-0.8-0.3-1.9-1.2-2.3C89.9,33.7,88.4,34.3,87.3,34.5z"/>
<path fill="#FEAC23" d="M132.2,34.1c-0.8,0.4-1.2,2.2-1.6,2.9c-1,1.8-2.5,3.3-4.3,4.4c-0.5,0.3-2.4,0.9-2.3,1.6
	c0.1,0.7,2.4,1.5,3,1.9c1.9,1.3,3.2,3.2,4.2,5.1c0.2,0.5,0.7,2.2,1.6,1.8c0.7-0.3,1.2-2.2,1.6-2.9c1-1.8,2.5-3.4,4.4-4.5
	c0.5-0.3,2.5-0.9,2.3-1.7c-0.2-0.8-2.4-1.5-3.1-2c-1.8-1.4-3.2-3.1-4.2-5.1C133.5,35.4,133.1,33.6,132.2,34.1z"/>
<path fill="#E94545" d="M88.5,34.1l0.2,0.2L88.5,34.1z M91.1,34.1l0.2,0.2L91.1,34.1z M87.7,34.3l0.2,0.2L87.7,34.3z M91.3,34.3
	l0.2,0.2L91.3,34.3z M87,34.6c-2.4-0.2-5.6,1.2-8,1.7c-5.9,1.3-11.9,2.7-17.8,3.9c-2,0.4-4,0.9-6.1,1.3c-0.8,0.2-1.8,0.3-2.2,1
	c-0.5,0.7-0.2,1.8,0,2.6l1,5.7c0.9,4.8,1.6,9.6,2.5,14.5c0.4,2.3,1.6,5.4,1.2,7.7c-0.3,1.7-4.1,1.8-5.5,2.5
	c-3.2,1.4-5.8,4.1-6.5,7.4c-0.8,3.7,2,7.4,6.3,7.7c5.8,0.4,12.5-2.9,13.4-8.6c0.5-2.8-0.5-6-1-8.8c-0.9-4.8-1.6-9.5-2.5-14.3
	c-0.4-1.9-0.7-3.9-1-5.9c-0.1-0.8-0.5-1.8-0.2-2.6c0.6-1.5,4.4-1.7,6-2.1c6.1-1.4,12.4-3.2,18.6-4.1c2.3-0.4,2.3,2.4,2.6,3.8
	c0.6,3.5,1.3,7,1.8,10.5c0.2,1.2,0.9,2.9,0.6,4.1c-0.2,1.1-1.5,1.3-2.5,1.5c-1.7,0.3-3.3,1.1-4.7,2c-2.7,1.7-5,4.8-4.9,7.9
	c0.1,4.2,5.1,7.4,9.6,6.1c3.5-1,6.3-5,6.7-8.2c0.3-2.8-0.7-6-1.2-8.8c-1-5.7-1.9-11.4-3-17c-0.5-3-1-6-1.6-8.9
	C88.3,36.4,88.2,34.7,87,34.6z M91.5,34.5l0.2,0.2L91.5,34.5z M91.7,34.8l0.2,0.2L91.7,34.8z"/>
<path fill="#FEAC23" d="M110.9,50.7c-0.7,0.3-1.1,1.8-1.4,2.4c-0.8,1.4-1.9,2.5-3.4,3.4c-0.4,0.3-2,0.7-1.8,1.4
	c0.3,0.9,2.9,1.9,3.6,2.6c1,1,1.7,2.2,2.3,3.4c0.2,0.3,0.4,1.1,1,0.9c0.7-0.2,1-1.6,1.3-2.1c0.8-1.4,2-2.7,3.5-3.6
	c0.4-0.3,2-0.8,1.9-1.4c-0.1-0.8-2.8-1.8-3.4-2.4c-1.1-1.1-2-2.4-2.6-3.8C111.7,51.2,111.5,50.4,110.9,50.7z"/>
<path fill="#E94545" d="M97.6,68.2l0.2,0.2L97.6,68.2z"/>
<path fill="#E94545" d="M96.3,74.7l0.2,0.2L96.3,74.7z M95.9,75.2l0.2,0.2L95.9,75.2z M138.5,78.2c-8.6,0-17.2-1.4-25.8-1.9
	c-2.2-0.1-4.4-0.4-6.6-0.5c-0.9-0.1-2.1-0.4-3,0c-0.8,0.4-0.9,1.4-1.1,2.2c-0.4,1.9-0.7,3.8-1,5.7c-1,5.2-2,10.4-2.9,15.7
	c-0.4,2-0.3,5.1-1.4,6.9c-0.9,1.4-4.4,0.6-6,0.7c-3.3,0.3-6.5,2-8.3,4.4c-2.3,3.1-1.6,7.2,1.9,9.3c5,3,13.5,1.3,16.5-3.4
	c1.5-2.3,1.6-5.3,2.1-7.9l2.7-14.5c0.5-2.7,0.6-6,1.6-8.6c0.4-0.9,1.1-1.2,2.1-1.2c6.2-0.1,12.6,1,18.8,1.4c1.5,0.1,5.4-0.2,6.2,1.2
	c0.5,0.9,0,2.2-0.2,3.1c-0.5,2.6-1,5.3-1.5,7.9c-0.4,1.9-0.2,5.8-1.6,7.4c-1.1,1.2-4.7,0.4-6.4,0.6c-5.6,0.9-12.1,6.5-8.1,11.8
	c4,5.2,12.6,2.8,15.2-2.4c1.4-2.7,1.5-6.2,2-9.1c1.1-5.7,2.1-11.5,3.2-17.2C137.5,86.2,139.3,81.7,138.5,78.2z"/>
<path fill="#D93131" d="M138.5,78.3c0.7,3.6-1.2,8.3-1.8,11.9l-3,16.3c-0.6,3-0.6,6.7-2.2,9.5c-1.7,3.1-5.3,4.8-8.9,5.5
	c4.2,1.6,10.7-1.7,12.7-5c1.6-2.7,1.7-6.3,2.2-9.3c1.2-6.4,2.2-12.8,3.5-19.1c0.5-2.2,0.9-4.5,1.3-6.7c0.1-0.8,0.5-1.8-0.2-2.5
	C141.3,78.2,139.6,78.3,138.5,78.3z"/>
<path fill="#FEAC23" d="M68.8,93.3c-0.8,0.1-1.3,2.1-1.6,2.7c-1.2,2.2-3,4.2-5.3,5.5c-0.6,0.3-2.6,0.9-2.3,1.7
	c0.2,0.7,1.5,1,2.1,1.3c1.4,0.7,2.6,1.8,3.5,2.9c1.1,1.2,1.9,2.7,2.6,4.1c0.2,0.4,0.4,1.4,1.1,1.3c0.9-0.1,1.3-2,1.7-2.7
	c1.2-2.2,2.9-4.1,5.1-5.4c0.6-0.3,2.7-0.9,2.5-1.8c-0.2-0.6-1.4-0.9-1.9-1.2c-1.5-0.8-2.7-1.8-3.8-3c-1.1-1.3-2-2.7-2.7-4.3
	C69.7,94.1,69.5,93.3,68.8,93.3z"/>
</svg>
