<svg width="132" height="133" viewBox="0 0 132 133" fill="none" xmlns="http://www.w3.org/2000/svg">
<path d="M70.3704 33.2475H92.938C95.1724 33.2475 99.7663 34.1229 101.698 32.9416C103.092 32.0892 102.536 29.1832 102.536 27.8001V12.7551C102.536 11.4015 103.143 7.95537 101.884 7.05555C100.268 5.90138 95.4238 6.78894 93.4568 6.78894H70.3704C70.3704 5.20272 70.6537 3.29281 69.8283 1.86139C68.4683 -0.497666 64.8294 -0.648801 63.2896 1.605C62.2853 3.07515 62.5885 5.1035 62.5885 6.78894V17.4242V53.7398V63.8563C62.5885 65.0633 62.203 67.0822 62.7449 68.1836C63.3776 69.4689 70.0705 69.2671 70.332 67.732C70.9429 64.1461 70.3704 59.9747 70.3704 56.3338V33.2475Z" fill="#FC8EAC"/>
<path d="M40.7992 18.7212C39.588 18.7212 38.0431 18.5154 36.9974 19.2632C35.8452 20.0872 35.9323 21.9201 37.1829 22.605C38.1678 23.1445 39.7107 22.8716 40.7992 22.8716C40.7992 24.0954 40.5631 25.6627 41.2811 26.7342C42.0884 27.9389 43.9226 28.0849 44.6829 26.7342C45.26 25.7093 44.9495 24.012 44.9495 22.8716C46.0901 22.8716 47.7873 23.182 48.8122 22.605C50.1372 21.859 50.0825 19.8641 48.785 19.1291C47.6843 18.5056 46.164 18.7212 44.9495 18.7212C44.9495 17.6327 45.2224 16.09 44.6829 15.1048C43.998 13.8543 42.1651 13.7672 41.3413 14.9195C40.5935 15.9652 40.7992 17.5101 40.7992 18.7212Z" fill="#4FD9EC"/>
<path d="M16.2005 28.3646C14.8111 28.9702 14.725 31.338 13.6566 32.3165C12.76 33.1375 11.0623 33.0083 9.93212 33.2187C9.34609 33.3279 8.51224 33.5164 8.61353 34.3003C8.83617 36.023 11.3694 36.7148 11.7357 38.4354C11.9646 39.5103 10.519 42.3487 11.644 43.07C12.9998 43.9398 15.2729 41.1526 16.7853 41.3811C18.1501 41.5876 19.8552 43.6934 21.2609 43.1803C22.5091 42.7245 21.1163 39.4146 21.2417 38.4354C21.3947 37.2416 22.6156 36.5548 23.4146 35.7973C23.87 35.3657 24.7549 34.6033 24.4115 33.8788C23.7712 32.5276 20.505 33.3001 19.3705 32.323C18.5599 31.6249 17.5758 27.7651 16.2005 28.3646Z" fill="#FCD04C"/>
<path d="M97.4707 47.6712C95.7083 47.6722 90.7969 49.5965 94.3732 51.5549C95.2414 52.0304 96.5145 51.8216 97.4707 51.8216C97.4707 52.8939 97.3283 54.167 97.8787 55.1382C98.6136 56.4357 100.609 56.4905 101.354 55.1655C101.868 54.2529 101.621 52.8335 101.621 51.8216C102.624 51.8216 104.058 52.0737 104.959 51.5549C108.519 49.5051 103.318 47.6722 101.621 47.6712C101.621 46.7252 101.836 45.4414 101.354 44.5867C99.3541 41.033 97.472 45.8969 97.4707 47.6712ZM28.7304 61.1599C24.3646 61.1723 24.3339 65.3074 28.7304 65.3102C28.7333 69.6038 32.7928 69.5496 32.8808 65.3102C37.0153 65.2983 36.9554 61.1962 32.8808 61.1599C32.7923 57.0051 28.7333 56.9486 28.7304 61.1599Z" fill="#FC8EAC"/>
<path d="M122.25 83.0517L121.813 77.8638L124.889 73.7845L119.971 72.26L117.227 68.2018L115.712 69.3086L113.419 72.5295L109.036 73.7949L112.103 77.8638L112.22 82.8813L116.803 81.2432L122.25 83.0517ZM56.8818 76.5668H65.4419C67.9477 76.5709 70.4455 76.8262 72.9645 76.8262C73.7375 76.8262 75.2609 77.1045 75.8106 76.4104C76.4464 75.6075 76.0772 73.6436 76.0772 72.6758C76.0772 71.5612 76.3942 69.7654 75.4459 68.9413C74.579 68.188 72.7336 68.5138 71.6675 68.5265C68.196 68.5678 64.7631 68.5678 61.2916 68.5265C60.165 68.513 58.142 68.1468 57.3337 69.1268C56.1145 70.6051 56.8818 74.7264 56.8818 76.5668Z" fill="#FCD04C"/>
<path d="M118.878 70.86L119.137 71.1194L118.878 70.86ZM119.137 71.3788L119.397 71.6382L119.137 71.3788ZM119.397 71.8976L119.656 72.157L119.397 71.8976ZM112.133 72.6758L112.393 72.9352L112.133 72.6758ZM124.844 74.2322L125.103 74.4916L124.844 74.2322ZM124.325 74.751L124.584 75.0104L124.325 74.751Z" fill="#F8DEA1"/>
<path d="M47.803 124.815H85.1562C85.1562 113.311 85.4156 101.798 85.4156 90.3149V81.236C85.4156 80.0949 85.7149 78.4057 85.1097 77.3834C84.1533 75.7679 79.5387 76.5642 77.893 76.5668C70.5448 76.5787 63.1987 76.7507 55.8443 76.5707C54.1216 76.5284 48.8343 75.7199 47.8494 77.3834C47.2442 78.4057 47.5436 80.0949 47.5436 81.236C47.5436 84.2722 47.8019 87.2931 47.803 90.3149V124.815Z" fill="#4FD9EC"/>
<path d="M57.1412 76.5668V76.8262H67.7765C64.9879 75.656 60.1751 76.5668 57.1412 76.5668ZM113.43 82.5329L113.69 82.7923L113.43 82.5329Z" fill="#F8DEA1"/>
<path d="M10.1904 124.815H47.8029V97.8374V90.8336C47.8029 89.9442 48.031 88.6088 47.4971 87.8334C46.4759 86.3494 41.1528 87.2021 39.5022 87.2021H17.7129C16.1368 87.2021 11.5171 86.4254 10.4962 87.8542C9.95635 88.6098 10.1904 89.9595 10.1904 90.8336V97.8374V124.815Z" fill="#FCD04C"/>
<path d="M47.5436 87.7209L47.803 87.9803L47.5436 87.7209Z" fill="#F8DEA1"/>
<path d="M64.6637 96.0216V108.213C63.6199 108.213 62.2526 108.027 61.3639 108.695C58.7448 110.665 62.5683 112.102 64.1449 112.104C66.1599 112.108 69.2589 112.68 71.1214 111.843C72.3639 111.284 72.759 109.57 71.5951 108.695C70.7064 108.027 69.3391 108.213 68.2953 108.213V98.0968C68.2953 96.7199 68.6548 94.736 68.1389 93.4419C67.3827 91.5457 62.1753 91.5047 61.0355 93.0111C59.0724 95.6056 63.1296 96.0216 64.6637 96.0216Z" fill="#FFFFFD"/>
<path d="M66.7389 92.1306L66.9983 92.39L66.7389 92.1306ZM61.2916 92.39L61.551 92.6494L61.2916 92.39ZM60.7728 92.9088L61.0322 93.1682L60.7728 92.9088ZM60.5134 93.4276L60.7728 93.687L60.5134 93.4276ZM68.2953 94.2058V108.213H68.5547V98.8749L68.2953 94.2058ZM60.5134 94.4652L60.7728 94.7246L60.5134 94.4652Z" fill="#F8DEA1"/>
<path d="M85.1561 124.815H18.491H7.85573C6.24005 124.815 4.22259 124.496 2.66779 124.984C0.152906 125.774 -0.753523 129.208 0.761941 131.288C2.48226 133.65 6.34394 132.856 8.89332 132.856H31.4609H105.389H124.066C126.291 132.856 129.749 133.526 131.561 131.976C133.718 130.129 133.238 126.17 130.55 125.076C128.403 124.202 125.066 124.815 122.769 124.815V103.803C122.769 101.861 123.584 97.504 122.463 95.8747C121.493 94.4652 116.793 95.2434 115.246 95.2434H93.4568C91.8063 95.2434 86.4832 94.3907 85.4619 95.8747C84.3406 97.504 85.1561 101.861 85.1561 103.803V124.815Z" fill="#FC8EAC"/>
<path d="M24.7165 96.0216V96.281H33.536L24.7165 96.0216ZM64.4043 96.0216V108.213H64.6637C64.6637 104.772 65.7298 99.1803 64.4043 96.0216ZM23.1601 97.578H23.4195L24.4571 96.5404L23.1601 97.578Z" fill="#F8DEA1"/>
<path d="M31.2015 99.9125V104.322C29.3813 104.322 25.4865 103.589 23.9976 104.738C23.2272 105.333 23.1736 106.283 23.1612 107.176C23.1332 109.181 22.3284 113.823 23.8122 115.364C24.4566 116.033 25.4166 115.99 26.2729 115.995C28.3714 116.006 31.8409 116.651 33.7672 115.773C35.0862 115.171 35.1274 113.141 33.7672 112.556C31.9109 111.758 29.0856 113.226 27.393 112.097C26.4721 111.483 26.4721 108.835 27.393 108.221C29.1865 107.024 32.1324 108.787 33.9957 107.648C34.8035 107.154 34.8203 106.204 34.832 105.36C34.8584 103.473 35.7362 98.0384 34.2017 96.7328C33.541 96.1707 32.5257 96.2823 31.7203 96.281C29.759 96.2776 25.6185 95.5054 23.9976 96.7328C20.885 99.09 26.1762 99.9125 27.5699 99.9125H31.2015Z" fill="#FFFFFD"/>
<path d="M33.7954 96.281L34.0548 96.5404L33.7954 96.281ZM34.3142 96.5404L34.5736 96.7998L34.3142 96.5404ZM34.5736 97.0592L34.833 97.3186L34.5736 97.0592ZM34.833 97.3186V106.916H35.0924C35.0924 104.154 35.8994 99.8602 34.833 97.3186ZM23.2466 98.7886L23.3331 98.9614L23.2466 98.7886ZM23.4195 99.1344L23.6789 99.3938L23.4195 99.1344ZM23.6789 99.3938L23.9383 99.6532L23.6789 99.3938ZM23.9383 99.6532L24.1977 99.9126L23.9383 99.6532ZM24.4571 99.9126V100.172H30.942V104.063H24.4571V104.322H31.2014V99.9126H24.4571Z" fill="#F8DEA1"/>
<path d="M99.1635 100.172L99.4228 100.431L99.1635 100.172Z" fill="#FCD04C"/>
<path d="M99.5959 100.258L99.7687 100.345L99.5959 100.258Z" fill="#F8DEA1"/>
<path d="M106.167 104.063V108.213C104.165 108.213 101.308 107.694 99.4279 108.445C98.2407 108.919 97.6842 110.496 98.7574 111.429C100.433 112.886 104.617 110.523 105.901 112.446C106.514 113.365 106.167 115.192 106.167 116.255C104.161 116.255 101.619 115.837 99.6837 116.403C98.5452 116.736 97.7481 117.914 98.4321 119.049C99.3685 120.602 103.313 119.886 104.87 119.886C106.113 119.886 108.208 120.29 109.147 119.285C110.087 118.278 109.799 116.475 109.799 115.217V105.101C109.799 103.834 110.115 102.038 109.168 101.029C107.628 99.3886 102.786 100.04 100.72 100.195C99.8723 100.259 98.8902 100.441 98.4329 101.247C96.3865 104.852 104.602 104.063 106.167 104.063Z" fill="#FFFFFD"/>
<path d="M107.897 100.258L108.069 100.345L107.897 100.258Z" fill="#F8DEA1"/>
<path d="M108.242 100.172L108.502 100.431L108.242 100.172ZM98.6448 100.431L98.9042 100.691L98.6448 100.431Z" fill="#FCD04C"/>
<path d="M108.761 100.431L109.021 100.691L108.761 100.431ZM98.3853 100.691L98.6447 100.95L98.3853 100.691ZM109.021 100.691L109.28 100.95L109.021 100.691ZM109.28 100.95L109.539 101.21L109.28 100.95ZM98.1259 101.21L98.3853 101.469L98.1259 101.21Z" fill="#F8DEA1"/>
<path d="M109.539 101.21L109.799 101.469L109.539 101.21Z" fill="#FCD04C"/>
<path d="M109.539 101.469L109.799 101.728L109.539 101.469Z" fill="#F8DEA1"/>
<path d="M97.8665 101.728L98.1259 101.988L97.8665 101.728Z" fill="#FCD04C"/>
<path d="M97.8665 101.988L98.1259 102.247L97.8665 101.988Z" fill="#F8DEA1"/>
<path d="M97.8665 102.247L98.1259 102.507L97.8665 102.247Z" fill="#FCD04C"/>
<path d="M98.1259 102.766L98.3853 103.025L98.1259 102.766ZM98.3853 103.285L98.6447 103.544L98.3853 103.285Z" fill="#F8DEA1"/>
<path d="M98.6448 103.544L98.9042 103.803L98.6448 103.544ZM99.1636 103.803L99.423 104.063L99.1636 103.803Z" fill="#FCD04C"/>
<path d="M99.5958 103.89L99.7686 103.977L99.5958 103.89ZM105.908 104.063V108.213H106.167L105.908 104.063ZM23.9382 104.322L24.1976 104.582L23.9382 104.322ZM23.6788 104.582L23.9382 104.841L23.6788 104.582ZM23.4194 104.841L23.6788 105.101L23.4194 104.841ZM23.2465 105.274L23.333 105.446L23.2465 105.274ZM22.9006 106.138V114.179H23.16L22.9006 106.138ZM34.5735 106.916L34.8329 107.176L34.5735 106.916ZM34.3141 107.435L34.5735 107.695L34.3141 107.435ZM33.7953 107.695L34.0547 107.954L33.7953 107.695ZM27.051 107.954V108.213H33.5359L27.051 107.954ZM26.7916 108.213V112.104H27.051L26.7916 108.213ZM61.8102 108.213L62.0696 108.473L61.8102 108.213ZM70.8891 108.213L71.1485 108.473L70.8891 108.213Z" fill="#F8DEA1"/>
<path d="M99.1635 108.213L99.4228 108.473L99.1635 108.213Z" fill="#FCD04C"/>
<path d="M99.423 108.213L99.6824 108.473L99.423 108.213Z" fill="#F8DEA1"/>
<path d="M98.6448 108.473L98.9042 108.732L98.6448 108.473Z" fill="#FCD04C"/>
<path d="M98.3854 108.732L98.6448 108.991L98.3854 108.732Z" fill="#F8DEA1"/>
<path d="M98.1259 108.991L98.3853 109.251L98.1259 108.991Z" fill="#FCD04C"/>
<path d="M60.5134 109.51L60.7728 109.77L60.5134 109.51ZM72.1862 109.51L72.4456 109.77L72.1862 109.51Z" fill="#F8DEA1"/>
<path d="M97.8665 109.77L98.1259 110.029L97.8665 109.77Z" fill="#FCD04C"/>
<path d="M97.8665 110.029L98.1259 110.288L97.8665 110.029Z" fill="#F8DEA1"/>
<path d="M97.8665 110.288L98.1259 110.548L97.8665 110.288Z" fill="#FCD04C"/>
<path d="M60.5134 110.548L60.7728 110.807L60.5134 110.548ZM72.1862 110.548L72.4456 110.807L72.1862 110.548ZM98.126 110.807L98.3854 111.067L98.126 110.807ZM60.7728 111.067L61.0322 111.326L60.7728 111.067ZM71.9268 111.067L72.1862 111.326L71.9268 111.067ZM98.3854 111.326L98.6448 111.585L98.3854 111.326ZM61.2916 111.585L61.551 111.845L61.2916 111.585ZM71.4081 111.585L71.6674 111.845L71.4081 111.585Z" fill="#F8DEA1"/>
<path d="M98.6448 111.585L98.9042 111.845L98.6448 111.585Z" fill="#FCD04C"/>
<path d="M61.8103 111.845L62.0697 112.104L61.8103 111.845ZM70.8892 111.845L71.1486 112.104L70.8892 111.845Z" fill="#F8DEA1"/>
<path d="M99.1635 111.845L99.4228 112.104L99.1635 111.845Z" fill="#FCD04C"/>
<path d="M99.4229 111.845V112.104H105.908L99.4229 111.845ZM27.0511 112.104V112.364H33.7954L27.0511 112.104ZM105.908 112.104V116.255H106.167L105.908 112.104ZM33.7954 112.364L34.0548 112.623L33.7954 112.364ZM34.3142 112.623L34.5736 112.882L34.3142 112.623ZM34.66 113.055L34.7466 113.228L34.66 113.055ZM34.833 113.401V114.958H35.0924L34.833 113.401ZM23.2466 114.612L23.3331 114.785L23.2466 114.612ZM34.5736 114.958L34.833 115.217L34.5736 114.958ZM23.4195 115.217L23.6789 115.476L23.4195 115.217ZM23.6789 115.476L23.9383 115.736L23.6789 115.476ZM34.2278 115.563L34.4006 115.649L34.2278 115.563ZM24.1113 115.822L24.2842 115.909L24.1113 115.822ZM33.7954 115.736L34.0548 115.995L33.7954 115.736ZM24.7165 115.995V116.255H33.2766L24.7165 115.995ZM99.3365 116.341L99.5093 116.428L99.3365 116.341ZM98.6447 116.514L98.9041 116.773L98.6447 116.514ZM98.3853 116.773L98.6447 117.033L98.3853 116.773Z" fill="#F8DEA1"/>
<path d="M98.1259 117.033L98.3852 117.292L98.1259 117.033ZM97.8665 117.811L98.1259 118.07L97.8665 117.811Z" fill="#FCD04C"/>
<path d="M97.8665 118.07L98.1259 118.33L97.8665 118.07Z" fill="#F8DEA1"/>
<path d="M97.8665 118.33L98.1259 118.589L97.8665 118.33Z" fill="#FCD04C"/>
<path d="M109.626 118.503L109.712 118.676L109.626 118.503ZM98.1259 118.849L98.3853 119.108L98.1259 118.849ZM109.28 119.108L109.539 119.367L109.28 119.108Z" fill="#F8DEA1"/>
<path d="M98.3854 119.367L98.6448 119.627L98.3854 119.367Z" fill="#FCD04C"/>
<path d="M109.021 119.367L109.28 119.627L109.021 119.367ZM98.9041 119.627L99.1635 119.886L98.9041 119.627Z" fill="#F8DEA1"/>
<path d="M108.761 119.627L109.021 119.886L108.761 119.627ZM99.423 119.886L99.6824 120.146L99.423 119.886Z" fill="#FCD04C"/>
<path d="M99.6823 119.886V120.146H108.242L99.6823 119.886Z" fill="#F8DEA1"/>
<path d="M108.242 119.886L108.502 120.146L108.242 119.886Z" fill="#FCD04C"/>
<path d="M0.0737305 130.262V132.856H2.6677V132.597L0.0737305 130.262ZM132.626 130.262L130.291 132.597V132.856H132.885L132.626 130.262Z" fill="#FFFFFD"/>
</svg>
