<?xml version="1.0" encoding="utf-8"?>
<!-- Generator: Adobe Illustrator 26.0.1, SVG Export Plug-In . SVG Version: 6.00 Build 0)  -->
<svg version="1.1" id="Layer_1" xmlns="http://www.w3.org/2000/svg" xmlns:xlink="http://www.w3.org/1999/xlink" x="0px" y="0px"
	 viewBox="0 0 156.6 151" enable-background="new 0 0 156.6 151" xml:space="preserve">
<g>
	
		<linearGradient id="SVGID_1_" gradientUnits="userSpaceOnUse" x1="39.6041" y1="137.7537" x2="146.5336" y2="0.1717" gradientTransform="matrix(1 0 0 -1 0 159)">
		<stop  offset="0" style="stop-color:#FF0046"/>
		<stop  offset="1" style="stop-color:#FF0046;stop-opacity:0"/>
	</linearGradient>
	<path shape-rendering="crispEdges" fill-rule="evenodd" clip-rule="evenodd" fill="url(#SVGID_1_)" fill-opacity="0.2" d="
		M1.2,16.5c-1.7-3.9-1.6-5.9,0.5-8.4c1.5-1.8,4.4-2.6,6.8-1.9c1.5,0.5,3.3,2.3,4.2,4.2c0.4,1,1.5,2.8,2.4,4.1
		c6.2,8.8,17,14.2,31.9,15.6l4.4,0.4l-3.2,3.7c-1.7,2-3.9,4.8-4.9,6.2c-0.1,0.1-0.2,0.3-0.3,0.4h0c-0.6,0.9-1,1.5-1.6,1.8
		c-0.9,0.5-2.1,0.2-5.3-0.5l0,0l0,0c-0.2,0-0.5-0.1-0.7-0.2C19.6,38.5,6.8,29,1.2,16.5z M91.9,0H78.6c-0.3,1.5-0.8,2.9-1.3,4.4
		c-3.3,9.5-9.1,18.3-18.4,27.9C45.9,45.7,37.6,59.7,35,72.9c-0.9,4.5-1,11.2-0.3,15.3c0.8,4.6,3.9,12,6.7,15.8
		c10.1,14,30.7,20.8,56.1,18.6c15.4-1.3,25-0.5,34.5,3.2c8.4,3.2,15.4,9.3,18.6,16.2c0,0,0,0.1,0.1,0.1c3.5-4.1,5.7-9.3,5.9-15
		c-9.1-11-24.4-17.7-43.4-18.5c-4.8-0.2-9.4,0-17.6,0.7c-4.6,0.4-14.6,0.1-19.1-0.7c-20.9-3.3-31.5-15.2-28.8-32.4
		c1.5-9.3,9-22.5,18.5-32.4c11.5-12,17.5-20.4,22-30.9C89.9,8.7,91.2,4.3,91.9,0z M133.7,150.9l11.3-5.4l-1.3-2.2
		c-0.7-1.2-1.5-2.4-1.7-2.7c-0.5-0.4-1.9,0.2-23.3,10.5h12.9C132.3,151,133,151,133.7,150.9z M95.2,151l16.5-8l20.4-9.8l-0.8-0.6
		c-0.5-0.3-2.3-1-4.2-1.5l-3.4-1l-14.6,7l-14.6,7l-1.4,3.2c-0.6,1.3-1.2,2.7-1.4,3.6H95.2z M85.1,151c1.6-6.1,4.6-12.3,8.8-18.5
		l2.1-2.9l-5.2,0.1c-2.8,0-6.2,0-7.5-0.1c-1.3-0.1-2.6-0.1-2.8,0c-0.3,0.2-1.1,1.5-2,3c-3.4,6.1-5.7,12.3-6.9,18.4H85.1z M71.2,0
		h0.7l-0.1,0.6c-0.1,0.6-0.8,2.5-1.5,4.3l-1.4,3.3l-14.6,7l-14.6,7l-3.2-0.9c-1.8-0.5-3.7-1.2-4.2-1.5l-1-0.6l20.4-9.8L71.2,0z
		 M32.9,0h14.8c-0.1,0.1-0.2,0.1-0.3,0.2C23.3,11.7,21.7,12.4,21.2,12c-0.2-0.3-1-1.5-1.7-2.7L18.3,7L32.9,0z M83.2,34.3
		c-1.7,2.3-3.8,5-4.8,6.1c-1,1.1-1.8,2.1-1.8,2.2c0,0.1,1.5,0.3,3.1,0.3c7.5,0.5,15.1,2.2,20.8,4.8c9.9,4.5,15.7,13.2,15.5,23.4
		c-0.1,7.8-3.6,16.9-9.9,26.2c-1.6,2.3-2.8,4.3-2.8,4.4c0,0.1,0.9,0.1,2,0.1c1-0.1,4.5,0,7.7,0.1l5.9,0.2l1.7-2.9
		c7.1-12.4,9.8-24.6,8-35.2c-0.5-2.9-0.9-4.1-3.2-9.1c-3.2-6.9-4.8-9.1-9.8-13.3c-5.8-4.9-13.5-8.4-22.4-10.3
		c-0.6-0.1-1.1-0.2-1.6-0.4l0,0l0,0l0,0c-2.8-0.6-4.1-0.9-5.1-0.5c-0.8,0.4-1.4,1.2-2.5,2.7v0C83.7,33.6,83.5,33.9,83.2,34.3z
		 M55.9,71.2c0.6-1.7,1.5-3.8,1.9-4.6l0.8-1.4L73.4,58l14.9-7.2l1.7,0.3c0.9,0.2,3.1,0.8,4.7,1.4l2.9,1.1L86.9,59
		c-5.9,2.9-15.5,7.5-21.4,10.3l-10.8,5.1L55.9,71.2z M55.3,88.9l1.4,3.1l26.2-12.7l26.2-12.7l-1.3-2.9l-1.3-2.9L80.2,73.3L53.9,85.8
		L55.3,88.9z M73.7,101.4c-1.9-0.4-5.9-1.7-7-2.3l-1-0.5l21.3-10.3c1.9-0.9,3.6-1.8,5.2-2.5l0,0c11.9-5.8,15.5-7.5,16.1-6.8
		c0.2,0.3-0.1,1.1-0.7,2.2v0c-0.2,0.3-0.3,0.7-0.5,1.1c-0.2,0.5-0.4,1-0.6,1.5v0l0,0v0c-0.4,0.9-0.7,1.6-1.1,2.2
		c-1.1,1.7-3.2,2.7-11.2,6.5l0,0l0,0c-1.3,0.6-2.8,1.3-4.4,2.1C75,101.6,75,101.7,73.7,101.4z"/>
</g>
<path fill="#EF407C" d="M65.5,23.2c-1.7,0.5-3,2-4.2,3.2c-3,2.8-8.1,6.1-10,9.7c-1.4,2.8,1.1,6.3,4.6,5.6c2-0.4,3.1-1.9,4.5-3.2
	c2.3-2.2,4.6-4.3,6.9-6.4c1.1-1,2.6-1.9,3.4-3.3C72.4,25.6,69.2,22.2,65.5,23.2z"/>
<path fill="#74C6E9" d="M64.6,44.7c1.6-1,3.1-2.4,4.5-3.7c1.5-1.4,4.1-3,5-4.7c0.6-1.2-2.8-3.5-3.6-4.3c-0.4-0.4-0.9-1-1.6-1
	c-0.9,0-1.7,1.1-2.2,1.6l-5.4,4.9c-0.5,0.5-1.7,1.3-1.7,2.1C59.5,41.1,63.5,43.7,64.6,44.7z"/>
<path fill="#EF407C" d="M76.2,34.5c-2.1,0.6-4.1,3.4-5.6,4.8c-2.1,1.9-6.9,4.9-7.4,7.6c-0.4,2.3,2,3.9,3.6,5.4
	c4,3.7,8.2,7.3,12,11.1c2.7,2.8,5.7,5.4,8.5,8c1.5,1.4,3.1,2.8,5.4,2.1c2.1-0.6,4.2-3.6,5.8-5c2-1.8,6.6-4.7,7.3-7.2
	c0.7-2.5-1.8-4.2-3.5-5.8L89.8,44.1l-8-7.4C80.2,35.2,78.6,33.8,76.2,34.5z"/>
<path fill="#FFD75B" d="M66.8,42.6l0.2,0.2L66.8,42.6z M66.6,42.8l0.2,0.2L66.6,42.8z M66.4,43l0.2,0.2L66.4,43z M66.2,43.3l0.2,0.2
	L66.2,43.3z M66,43.5l0.2,0.2L66,43.5z M65.7,43.7l0.2,0.2L65.7,43.7z M65.5,43.9l0.2,0.2L65.5,43.9z M65.3,44.1l0.2,0.2L65.3,44.1z
	 M65.1,44.3l0.2,0.2L65.1,44.3z M64.8,44.5l0.2,0.2L64.8,44.5z M63.5,49l-4.7,4.5v0.2c5.1,4.7,10,10.6,15.9,14.4
	c1.1-1.8,2.7-3.4,4.7-4.3l-6-5.8L63.5,49z"/>
<path fill="#74C6E9" d="M104.1,63.7c-0.9,0.2-1.6,1.2-2.2,1.8L97,70.1c-0.6,0.5-1.7,1.3-1.9,2.1c-0.2,0.7,0.8,1.4,1.3,1.9
	c1.5,1.4,2.9,2.5,5.1,2c2.5-0.5,6.9-4.9,6.9-7.3C108.4,67.2,106,63.3,104.1,63.7z"/>
<path fill="#FFD75B" d="M83.4,85.5v20.4h6.7V85.7L83.4,85.5z"/>
<path fill="#EF407C" d="M90.1,118.5h20.1v-17.9c0-1.2,0.7-5.2-0.4-6c-0.6-0.5-2-0.2-2.8-0.2h-7.1h-7.1c-0.7,0-2-0.2-2.5,0.3
	c-1.1,1.3-0.1,5.3,0,6.9C90.6,107.2,90.1,112.9,90.1,118.5z"/>
<path fill="#74C6E9" d="M59,118.6c-5.2,0.9-5.5,8.1-0.7,9.8c1.5,0.5,3.4,0.2,4.9,0.2h9.6h32.8h10.5c1.7,0,3.6,0.2,5.1-0.6
	c4-2.3,3.3-8.9-1.8-9.4c-3.9-0.4-8.1,0-12.1,0H83.4H67.3C64.6,118.5,61.6,118.1,59,118.6z"/>
<path fill="#ADADAD" d="M83.4,105.9L58.8,53.7l15.9,14.5l8.7,17.3V105.9z"/>
</svg>
