<?xml version="1.0" encoding="utf-8"?>
<!-- Generator: Adobe Illustrator 26.0.1, SVG Export Plug-In . SVG Version: 6.00 Build 0)  -->
<svg version="1.1" id="Layer_1" xmlns="http://www.w3.org/2000/svg" xmlns:xlink="http://www.w3.org/1999/xlink" x="0px" y="0px"
	 viewBox="0 0 157 151" enable-background="new 0 0 157 151" xml:space="preserve">
<linearGradient id="SVGID_1_" gradientUnits="userSpaceOnUse" x1="22.3243" y1="196.0603" x2="142.168" y2="9.7443" gradientTransform="matrix(1 0 0 -1 0 151)">
	<stop  offset="0" style="stop-color:#FC8EAC"/>
	<stop  offset="1" style="stop-color:#FC8EAC;stop-opacity:0"/>
</linearGradient>
<path fill-rule="evenodd" clip-rule="evenodd" fill="url(#SVGID_1_)" d="M21.4,34.4l3.5,6.5L7.6,49.8c-0.3,0.1-0.5,0.3-0.8,0.4
	c-2.6,1.3-5.4,2.7-6.3,5.7c-1.2,3.8,2,8.7,4.5,12.7c0.7,1.1,1.4,2.2,1.9,3.1c0.4,0.7,0.7,1.3,1.1,2l0,0c1.5,2.8,3,5.5,4.8,8.1
	c1.1,1,2.1,2.1,3.1,3.2c1.4,1.5,2.8,3.1,4.6,4.3c9.2,6.4,22.6,8.6,33.2,4.2l0,0c0.1,0.1,0.2,0.3,0.2,0.4
	c4.2,7.5,10.3,13.7,17.6,17.9c8.3,4.8,18,6.9,28.2,6.2c1.3-0.2,2.7-0.4,4-0.6h0c1.3-0.2,2.5-0.4,3.8-0.5l0,0v0
	c0.5,2.6,0.9,5.1,1.3,7.7l0,0c0.2,1.3,0.4,2.6,0.7,3.9c0,0.3,0.1,0.6,0.2,1c0.3,1.2,0.6,2.6,0.2,3.4c-0.5,1-2.2,1.7-3.6,2.3
	c-0.5,0.2-0.9,0.4-1.2,0.5c-0.9,0.5-1.9,0.9-3,1.4c-0.2,0.1-0.3,0.1-0.5,0.2l0,0c-0.9,0.4-1.9,0.8-2.9,1.3c-3,1.4-5.9,3.2-7.1,5.6
	c-0.5,0.9-0.7,2-0.8,3.1c0,1.1,0.1,2.1,0.3,3.2c0,0.2,0.1,0.3,0.1,0.5H125l29.8-15.3c1.3-3,1.9-6.2,1.9-9.7v-15.9
	c-2.5,0-5.1,1.2-7.7,2.6c-0.9,0.5-1.8,1-2.7,1.6c-0.2,0.1-0.3,0.2-0.5,0.3c-1,0.6-2,1.2-2.8,1.6c-0.3,0.2-0.7,0.4-1.2,0.7
	c-1.3,0.8-2.8,1.7-3.9,1.6c-1-0.1-2-1.2-2.8-2.1c-0.3-0.3-0.5-0.5-0.7-0.7c-1-0.9-2-1.8-2.9-2.7l0,0c-1.9-1.8-3.9-3.6-5.8-5.4
	c0.9-0.9,1.7-1.9,2.6-2.8l0,0c0.9-1,1.9-1.9,2.7-2.9c6.3-7.8,10-16.7,10.6-26.1c0.5-8.4-1.4-16.9-5.6-24.6v0
	c7.3-4.5,12.8-13,14.7-21.9c0.8-4.1,0.8-8.3,0-12.2c-0.3-1.7-0.9-3.4-1.5-4.9c-0.2-0.3-0.3-0.7-0.5-1l0.3,0.5c-1.1-2.7-2.6-5.3-4-8
	c-3.8-2.4-8.3-3.7-13.1-3.7H88.4L21.4,34.4z M18.9,61.2c0.3,0.6,0.7,1.2,1,1.8c4.5,8.4,8.7,16.2,19.7,17.3c2.2,0.2,4.5,0,6.6-0.4
	l-14-25.6L18.9,61.2z M114.6,12.1l14,25.6c6.2-5,8-13.5,5.6-20.8c-0.9-2.8-2.6-5.6-4.2-8.2v0c-0.7-1.2-1.4-2.3-2-3.5L114.6,12.1z
	 M77.1,40.6l0.8,10.9l0,4.6l-3.8,2.3l-9.9,5.1l12.3,5.9l4.5,2.3l1.4,4.3l2.6,10l6.8-9.5l3-3.9l5-0.2l11.9-0.1l-7-7.7l-2.8-3.5
	l0.6-4.9l1.9-13.2L94.5,48l-4,1.7l-4-2.6l-8.8-6.7L77.1,40.6z"/>
<path fill="#7B738B" d="M74.1,46.7h9.5h6.6c0.7,0,2,0.2,2.6-0.2c0.6-0.4,0.7-1.6,0.8-2.3c0.3-2.5-0.3-5.2-1.8-7.2
	c-4.9-6.7-16.1-4.8-18,3.5C73.3,42.7,73.7,44.6,74.1,46.7z"/>
<path fill="#8389CB" d="M80.1,33.4l0.2,0.2L80.1,33.4z M75.9,36.3l0.2,0.2L75.9,36.3z M74.1,39.2l0.2,0.2L74.1,39.2z"/>
<path fill="#EB5B71" d="M74.3,46.7c1,3.5,1.8,5-0.4,8.3h19.4c-2.2-3.4-1.4-4.8-0.4-8.3H74.3z"/>
<path fill="#7B738B" d="M37.5,62.4L54,58.2c0-1.8,0-3.5-0.8-5.2c-2.6-5.5-10.6-6.8-14.8-2.3C35.2,54.1,35.5,58.6,37.5,62.4z
	 M113.2,58.2c3.9,0.5,7.8,2.1,11.6,3.1c1.2,0.3,3,1.2,4.3,1.1c0.9-0.1,1.4-1.5,1.6-2.2c0.8-2.4,0.7-5.1-0.5-7.4
	C125.7,44.2,111.4,48.3,113.2,58.2z"/>
<path fill="#8389CB" d="M42,48.3l0.2,0.2L42,48.3z M40.2,49.1l0.2,0.2L40.2,49.1z M36,55.1l0.2,0.2L36,55.1z"/>
<path fill="#7B738B" d="M63.9,69.4c-1.9-1.7-5.1-3.8-7.7-4.1c-1-0.1-2.2,0.5-3.1,0.7c-2.3,0.6-4.6,1.3-7,1.9
	c-1.9,0.5-5.4,0.8-6.9,2.1c-2,1.8-3.7,5.3-4.5,7.8c-2.6,9.1,2.5,15.6,7.5,22.7c1.6,2.3,3.3,4.5,4.9,6.8c0.9,1.2,1.7,2.7,3.2,3.3
	c1.5,0.5,3,0,4.5-0.4C52.6,99.6,54.5,89,62.5,81c15-15,41.3-9.4,49,10.4c2.5,6.4,1.9,12.2,1,18.8c1.3,0.4,2.9,0.9,4.3,0.4
	c1.3-0.4,2.1-1.7,2.9-2.7c1.5-2.1,3-4.1,4.5-6.2c5.4-7.6,11.6-14.9,8.2-24.8c-1-2.9-3.2-4.9-4.5-7.6c-1.4,0.2-3.1-0.5-4.5-0.9
	c-2.8-0.8-5.6-1.4-8.3-2.1c-1.3-0.3-2.8-1-4.1-1c-2.4,0.1-5.9,2.6-7.6,4.2c-0.4-5.2-4.9-12.6-10.1-14.4c-1-0.3-2.4-0.1-3.5-0.1h-7.6
	c-2.3,0-6.4-0.8-8.5,0.2C68.5,57.8,65.2,64.1,63.9,69.4z"/>
<path fill="#EB5B71" d="M37.7,62.4c1.9,2.8,2.5,4,1.7,7.4l16.5-4.5v-0.4c-2.4-1.8-2.5-4.1-1.9-6.8C48.8,58.9,42.6,60.6,37.7,62.4z
	 M113.2,58.2c0.2,2.9,0.4,5.1-2.3,7v0.2l16.6,4.3c-0.5-3.3,0-4.4,1.9-7.2C124.2,61.2,118.7,58.6,113.2,58.2z"/>
<path fill="#E9E1F9" d="M53.8,58.6l0.2,0.2L53.8,58.6z"/>
<path fill="#8389CB" d="M115.4,58.6l0.2,0.2L115.4,58.6z M116.1,58.7l0.2,0.2L116.1,58.7z M69.1,59.1l0.2,0.2L69.1,59.1z M36.4,60.1
	l0.2,0.2L36.4,60.1z M121.2,60.1l0.2,0.2L121.2,60.1z M45.1,60.3l0.2,0.2L45.1,60.3z M42.2,61.1l0.2,0.2L42.2,61.1z M40,61.7
	l0.2,0.2L40,61.7z"/>
<path fill="#E9E1F9" d="M53.6,61.7l0.2,0.2L53.6,61.7z"/>
<path fill="#8389CB" d="M39.3,61.8l0.2,0.2L39.3,61.8z M111.3,65.3l0.2,0.2L111.3,65.3z M112.1,65.5l0.2,0.2L112.1,65.5z"/>
<path fill="#E9E1F9" d="M127.2,65.7l0.2,0.2L127.2,65.7z"/>
<path fill="#8389CB" d="M114.2,66.1l0.2,0.2L114.2,66.1z M64.4,66.9l0.2,0.2L64.4,66.9z M117.1,66.9l0.2,0.2L117.1,66.9z M120,67.7
	l0.2,0.2L120,67.7z M44.1,68.4l0.2,0.2L44.1,68.4z M41.2,69.2l0.2,0.2L41.2,69.2z M103.4,69.4l0.2,0.2L103.4,69.4z M81.1,72.3v0.2
	h1.4L81.1,72.3z"/>
<path fill="#FFBC5C" d="M85.7,132.1c-1.9-2.7-5.1-4.8-6.5-7.9c-0.5-1.1,1-2.2,1.2-3.3c0.6-3.3-2.1-6.4-5.6-5.6c-2-6.1-2-11.7-1.9-18
	h-0.2c-2.1,4.8-12.3,4.7-12.1-1.5c0.1-2.6,2.9-4.7,5.3-4.8c3.3-0.1,6.2,1.3,7.2,4.6h0.2c0.5-6.2,3.7-12.5,7.3-17.4
	c1.4-2,3.3-3.6,4.7-5.6c-3.5-0.6-7.7,0.2-11,1.4C58.7,79.1,50.9,95.4,54.9,111C58.5,125.1,72.2,132.1,85.7,132.1z"/>
<path fill="#FFD75B" d="M84.8,72.3v0.2h0.6c-5.8,5.8-11.6,14.5-12,23h-0.2v-0.4H73l0.2,1.9l-0.4-0.2v0.2c0.5,2.2,0,4.9,0,7.2
	c0,3.5,0.7,7.8,2.1,11c3.2-0.6,6.3,2.3,5.5,5.6c-0.3,1.2-1.9,2.2-1.2,3.5c1.3,2.3,4.2,6.7,6.7,7.6c1,0.4,2.7-0.2,3.7-0.4
	c3.5-0.7,6.8-2,9.9-3.9c20.6-12.5,17.5-45.1-5-53.5C91.4,73.2,88.1,72.4,84.8,72.3z M79.4,72.5v0.2h0.8L79.4,72.5z M78.2,72.7v0.2
	h0.6L78.2,72.7z M77.4,72.9l0.1,0.1L77.4,72.9z M76.3,73.1v0.2h0.6L76.3,73.1z M75.7,73.3l0.2,0.2L75.7,73.3z M75,73.5l0.1,0.1
	L75,73.5z M74.4,73.7l0.1,0.1L74.4,73.7z M73.9,73.9L74,74L73.9,73.9z M73.3,74.1l0.1,0.1L73.3,74.1z M72.7,74.3l0.1,0.1L72.7,74.3z
	 M72.2,74.4l0.2,0.2L72.2,74.4z M71.7,74.7l0.1,0.1L71.7,74.7z M71.3,74.9l0.1,0.1L71.3,74.9z M70.8,75l0.2,0.2L70.8,75z M70.4,75.2
	l0.2,0.2L70.4,75.2z M35.6,75.4l0.2,0.2L35.6,75.4z M70.1,75.4l0.2,0.2L70.1,75.4z M69.7,75.6l0.2,0.2L69.7,75.6z M69.3,75.8
	l0.2,0.2L69.3,75.8z M69,76l0.1,0.1L69,76z M68.7,76.2l0.2,0.2L68.7,76.2z M68.3,76.4l0.2,0.2L68.3,76.4z M67.9,76.6l0.2,0.2
	L67.9,76.6z M67.7,76.8l0.2,0.2L67.7,76.8z M67.3,76.9l0.2,0.2L67.3,76.9z M67.2,77.1l0.2,0.2L67.2,77.1z M66.8,77.3l0.2,0.2
	L66.8,77.3z M66.6,77.5l0.2,0.2L66.6,77.5z M66.2,77.7l0.2,0.2L66.2,77.7z M66,77.9l0.2,0.2L66,77.9z M65.6,78.1l0.2,0.2L65.6,78.1z
	 M65.4,78.3l0.2,0.2L65.4,78.3z M65.2,78.5l0.2,0.2L65.2,78.5z M65,78.7l0.2,0.2L65,78.7z M64.6,78.9l0.2,0.2L64.6,78.9z M64.4,79.1
	l0.2,0.2L64.4,79.1z M64.2,79.3l0.2,0.2L64.2,79.3z M64.1,79.5l0.2,0.2L64.1,79.5z M63.9,79.7l0.2,0.2L63.9,79.7z M62.9,80.4
	l0.2,0.2L62.9,80.4z M62.7,80.6l0.2,0.2L62.7,80.6z M62.5,80.8l0.2,0.2L62.5,80.8z M62.3,81l0.2,0.2L62.3,81z M62.1,81.2l0.2,0.2
	L62.1,81.2z M61.9,81.4l0.2,0.2L61.9,81.4z M61,82.6l0.2,0.2L61,82.6z M60.8,82.8L61,83L60.8,82.8z M60.6,83l0.2,0.2L60.6,83z
	 M60.4,83.1l0.2,0.2L60.4,83.1z M60,83.7l0.2,0.2L60,83.7z M59.8,83.9l0.2,0.2L59.8,83.9z M59.6,84.1l0.2,0.2L59.6,84.1z M59.4,84.5
	l0.2,0.2L59.4,84.5z M59.2,84.7l0.2,0.2L59.2,84.7z M58.8,85.3l0.2,0.2L58.8,85.3z M34,85.7l0.2,0.2L34,85.7z"/>
<path fill="#8389CB" d="M58.4,85.9l0.2,0.2L58.4,85.9z"/>
<path fill="#8389CB" d="M58.1,86.4l0.2,0.2L58.1,86.4z M57.9,86.8l0.2,0.2L57.9,86.8z M57.5,87.4l0.2,0.2L57.5,87.4z M57.3,87.8
	l0.2,0.2L57.3,87.8z M57.1,88.2l0.2,0.2L57.1,88.2z"/>
<path fill="#FFBC5C" d="M82.8,88.5c-4.1,1-2.8,8.2,1.5,7.2C88.5,94.7,87.2,87.4,82.8,88.5z"/>
<path fill="#8389CB" d="M66.8,90.9l0.2,0.2L66.8,90.9z M100.3,90.9l0.2,0.2L100.3,90.9z"/>
<path fill="#626BAE" d="M73,96.8l0.1,0.1L73,96.8z"/>
<path fill="#FFBC5C" d="M82.4,102c-5.9,1.4-3.5,10.4,2.3,9.1C90.7,109.8,88.3,100.7,82.4,102z"/>
<path fill="#E9E1F9" d="M111.9,112l0.2,0.2L111.9,112z M111.3,113.5l0.2,0.2L111.3,113.5z"/>
<path fill="#FFBC5C" d="M90.6,115.2c-6,1.1-4.4,10.4,1.5,9.2C98,123.3,96.4,114.1,90.6,115.2z"/>
<path fill="#8389CB" d="M57.7,117.4l0.2,0.2L57.7,117.4z M64.2,125.2l0.2,0.2L64.2,125.2z"/>
<path fill="#E9E1F9" d="M101,126.5l0.2,0.2L101,126.5z M98.3,128.3l0.2,0.2L98.3,128.3z"/>
<path fill="#8389CB" d="M71,129.4l0.2,0.2L71,129.4z"/>
<path fill="#E9E1F9" d="M95.6,129.6l0.2,0.2L95.6,129.6z"/>
<path fill="#8389CB" d="M72.4,130l0.2,0.2L72.4,130z"/>
<path fill="#E9E1F9" d="M93.1,130.6l0.2,0.2L93.1,130.6z"/>
<path fill="#8389CB" d="M80.1,131.9l0.2,0.2L80.1,131.9z"/>
</svg>
