<?xml version="1.0" encoding="utf-8"?>
<!-- Generator: Adobe Illustrator 26.0.1, SVG Export Plug-In . SVG Version: 6.00 Build 0)  -->
<svg version="1.1" id="Layer_1" xmlns="http://www.w3.org/2000/svg" xmlns:xlink="http://www.w3.org/1999/xlink" x="0px" y="0px"
	 viewBox="0 0 309 307" enable-background="new 0 0 309 307" xml:space="preserve">
<path opacity="0.18" fill="#FC8EAC" enable-background="new    " d="M51.7,22.6C28.5,42,14.8,71.7,13.5,101.9
	c-0.8,17.8,2.5,35.5,1.1,53.3C11.9,188-6.7,220.7,2.6,252.3c9.5,32.5,45.6,50.5,79.4,53.2c33.8,2.7,67.4-5.8,101.3-7.1
	c18.4-0.7,37,0.8,55.3-1.2c18.4-1.9,37.1-7.7,50.3-20.6c13.2-12.9,19.3-31.5,19.3-49.8c-0.1-18.3-6-36.2-14.3-52.4
	c-8.8-17.1-20.6-33.2-24.7-52c-5.8-26.5,3.7-57.7-13.2-79c-10.4-13.2-27.9-18-44.2-22.2C184.7,14.3,157,4.7,129.2,1
	c-13.9-2-28.1-1-41.6,2.7C82.4,5.2,51.7,15.7,51.7,22.6z"/>
<radialGradient id="SVGID_1_" cx="-146.6874" cy="543.0885" r="1" gradientTransform="matrix(35.014 0 0 -35.014 5342.3262 19075.4102)" gradientUnits="userSpaceOnUse">
	<stop  offset="0" style="stop-color:#FFFFFF"/>
	<stop  offset="1" style="stop-color:#FFFFFF;stop-opacity:0"/>
</radialGradient>
<path fill="url(#SVGID_1_)" d="M206.2,111.7c28.7,0,52-23.3,52-52c0-28.7-23.3-52-52-52s-52,23.3-52,52
	C154.2,88.4,177.5,111.7,206.2,111.7z"/>
<linearGradient id="SVGID_00000097466983302385378130000005294110414959732623_" gradientUnits="userSpaceOnUse" x1="155.3187" y1="185.3629" x2="150.9247" y2="-71.9881" gradientTransform="matrix(1 0 0 -1 0 308)">
	<stop  offset="1.000000e-02" style="stop-color:#000000"/>
	<stop  offset="0.13" style="stop-color:#000000;stop-opacity:0.69"/>
	<stop  offset="1" style="stop-color:#000000;stop-opacity:0"/>
</linearGradient>
<path fill="url(#SVGID_00000097466983302385378130000005294110414959732623_)" d="M153.2,274.4c66,0,119.5-11.2,119.5-24.9
	c0-13.8-53.5-24.9-119.5-24.9c-66,0-119.5,11.2-119.5,24.9C33.6,263.3,87.1,274.4,153.2,274.4z"/>
<path fill="#F5BBB9" d="M205.9,250.9c0.2,0.8,0.7,1.5,1.3,2.1c0.6,0.4,1.3,0.7,2,0.8c2.5,0.4,5.8-2.1,5.4-3.5
	c-0.3-1.4,0.1-6.1-0.1-7.5c-0.1-0.6-0.2-1.2-0.5-1.8c-0.7-1.3-2.5-1.4-4-1.3c-1.9,0.2-5,0.8-5.6,3
	C203.9,245.2,205.1,248.8,205.9,250.9z"/>
<path fill="#FC8EAC" d="M128.1,114.2c-2.7,2-3.6,6-2.8,9.3c0.8,3.3,2.8,6.2,5,8.9c5.6,6.8,12.3,12.6,19.7,17.3
	c2.7,1.7,5.6,3.3,8.8,3.6c3.6,0.4,7.2-0.8,10.6-2c1.6-0.4,3.1-1.2,4.5-2.1c1.3-1.2,2.4-2.7,3-4.4c1.7-4.1,2.6-8.4,2.7-12.8
	c0.2-5.8-1-5.9-3-11.3c-1.5-4.1-4-8.9-8.2-7.7c-11.3,3.1-8,15.1-8,20.6c-3.7-4.4-10.6-10.6-14.9-14.4
	C142,116,132.8,110.7,128.1,114.2z"/>
<linearGradient id="SVGID_00000122706411920773232170000000019262503646689681_" gradientUnits="userSpaceOnUse" x1="148.0784" y1="181.4678" x2="177.8924" y2="169.2478" gradientTransform="matrix(1 0 0 -1 0 308)">
	<stop  offset="1.000000e-02" style="stop-color:#000000"/>
	<stop  offset="0.13" style="stop-color:#000000;stop-opacity:0.69"/>
	<stop  offset="1" style="stop-color:#000000;stop-opacity:0"/>
</linearGradient>
<path fill="url(#SVGID_00000122706411920773232170000000019262503646689681_)" d="M128.1,114.2c-2.7,2-3.6,6-2.8,9.3
	c0.8,3.3,2.8,6.2,5,8.9c5.6,6.8,12.3,12.6,19.7,17.3c2.7,1.7,5.6,3.3,8.8,3.6c3.6,0.4,7.2-0.8,10.6-2c1.6-0.4,3.1-1.2,4.5-2.1
	c1.3-1.2,2.4-2.7,3-4.4c1.7-4.1,2.6-8.4,2.7-12.8c0.2-5.8-1-5.9-3-11.3c-1.5-4.1-4-8.9-8.2-7.7c-11.3,3.1-8,15.1-8,20.6
	c-3.7-4.4-10.6-10.6-14.9-14.4C142,116,132.8,110.7,128.1,114.2z"/>
<path fill="#F5BBB9" d="M163.4,96.5c-1.1,2-0.1,4.7-1.1,6.7c-0.6,1.1-1.6,1.9-2.8,2.4c-2,0.9-4.4,1-6.4,2c-1.8,0.9-3.2,2.3-3.9,4.1
	c-0.8,1.8-0.9,4-2.4,5.3c-1.7,1.6-4.5,1.3-6.7,0.7c-1.6-0.4-3.2-1.1-4.1-2.5c-0.5-0.9-0.7-2-0.6-3c0-2.5,0.7-5,1.2-7.4
	c0.7-3.5,0.9-7.2,1.8-10.7c0.8-3.5,2.3-7,5.1-9.4c2.7-2.4,8.7-8.5,12.2-7.9c3.3,0.6,4,7.9,5.9,10.7c0.6,1.1,1.2,2.2,1.6,3.3
	C164.4,93.2,164.7,94.1,163.4,96.5z"/>
<path fill="#2E2E3F" d="M158.1,78c-0.7,2.2-2.8,3.5-4.8,4.7c-2,1.2-4.1,2.6-4.6,4.8c-0.3,1.4,0,2.9-0.8,4.1
	c-0.3-0.6-0.6-1.2-1.1-1.6c-0.2-0.2-0.5-0.4-0.9-0.5c-0.3-0.1-0.7-0.1-1,0c-0.3,0.2-0.6,0.4-0.8,0.8c-0.2,0.3-0.3,0.7-0.3,1.1
	c0,0.8,0.3,1.6,0.8,2.2c0.5,0.6,1.2,1,2,1.2c-0.9,1.4-1.6,2.9-1.8,4.6c-0.2,1.7-0.1,3.6-1.2,4.9c-0.6,0.7-1.4,1.1-2.3,1.2
	c-0.9,0.1-1.8-0.2-2.5-0.7c-0.2,0.6-0.7,1-1.2,1.3c-1.4-0.7-1.4-2.7-1.6-4.2c-0.7-4.1-4.6-7-5.8-11c-0.6-2.1-0.7-4.4-0.4-6.6
	c0-2.1,0.5-4.2,1.2-6.1c1.4-2.7,3.7-4.8,6.5-5.9c2.5-1,5.2-1.7,7.8-2.1c2.2-0.5,4.5-0.9,6.7-1.1C156.5,69,159.3,74.4,158.1,78z"/>
<path fill="#2E2E3F" d="M196.3,168.6c0.8,0,1.6,0.1,2.4,0.4c0.7,0.3,1.4,0.8,1.9,1.3c6.3,5.9,8.2,15,9.8,23.4
	c2.7,14.2,5.3,28.5,5.7,42.9c0.1,2.8,1.2,5.4-0.1,7.9c-1.3,2.5-7.4,2.8-10.1,1.8c-2.7-0.9-2-2-3.1-4.7c-2.2-5.4-5.3-10.3-8.4-15.3
	l-11.3-18c-1.8-2.9-3.7-5.8-6.5-7.8c-3.9-2.7-8.9-3.1-13.6-4c-4.7-0.9-9.8-2.7-11.9-7c-3.9-7.6,1.3-18,9.5-19
	C172.4,169.4,184.2,168.1,196.3,168.6z"/>
<linearGradient id="SVGID_00000038404846516313600440000000537933749333860497_" gradientUnits="userSpaceOnUse" x1="179.2097" y1="122.3855" x2="211.3358" y2="50.5065" gradientTransform="matrix(1 0 0 -1 0 308)">
	<stop  offset="1.000000e-02" style="stop-color:#000000"/>
	<stop  offset="0.13" style="stop-color:#000000;stop-opacity:0.69"/>
	<stop  offset="1" style="stop-color:#000000;stop-opacity:0"/>
</linearGradient>
<path fill="url(#SVGID_00000038404846516313600440000000537933749333860497_)" d="M196.3,168.6c0.8,0,1.6,0.1,2.4,0.4
	c0.7,0.3,1.4,0.8,1.9,1.3c6.3,5.9,8.2,15,9.8,23.4c2.7,14.2,5.3,28.5,5.7,42.9c0.1,2.8,0.6,5.3-0.7,7.8c-1.3,2.5-5.5,3.1-8.2,2.2
	c-2.7-0.9-3.4-2.2-4.5-4.9c-2.2-5.3-5.3-10.3-8.4-15.2l-11.3-18c-1.8-2.9-3.7-5.8-6.5-7.8c-3.9-2.7-8.9-3.1-13.6-4
	c-4.7-0.9-9.8-2.7-11.9-7c-3.9-7.6,1.3-18,9.5-19C172.4,169.4,184.2,168.1,196.3,168.6z"/>
<path fill="#F5BBB9" d="M209.6,215.2c0.1,0.9,0.4,1.8,0.8,2.6c1.1,1.9,3.6,2.8,5.9,2.8c1,0.1,1.9-0.1,2.8-0.6
	c0.5-0.3,0.9-0.7,1.3-1.2c0.3-0.5,0.6-1,0.7-1.6c0.2-1.2,0.3-2.4,0.2-3.5c-0.1-2.5-0.5-5.1-0.9-7.6c0-0.4-0.2-0.7-0.4-1
	c-0.5-0.6-1.5-0.4-2.3-0.2c-2,0.6-6.8,1.1-8.2,2.6C207.9,209.2,209.6,213.1,209.6,215.2z"/>
<path fill="#2E2E3F" d="M220.4,216.8c-1,0.3-2,0.7-3,1.1c-1.3,0.4-2.6,0.6-4,0.4c-1.4-0.2-3.2-0.7-4.1,0.4c-0.2,0.4-0.4,0.8-0.5,1.3
	c-0.1,0.5,0,0.9,0.1,1.4c0.3,1.7,0.8,3.5,1.4,5.1c0.2,0.6,0.5,1.2,0.9,1.6c1,1.1,2.6,1.2,4.1,1.3c5.2,0.3,10.5,0.3,15.7,0
	c1.6-0.1,3.5-0.6,3.9-2.1c0.1-0.9-0.1-1.7-0.7-2.4c-1.6-2.5-4-4.1-6.6-5.4C225.6,218.3,223,216.3,220.4,216.8z"/>
<path fill="#2E2E3F" d="M214.1,249.3c-0.9,0.3-1.7,0.6-2.5,0.9c-1.1,0.4-2.3,0.5-3.4,0.3c-1.2-0.2-2.7-0.6-3.5,0.3
	c-0.2,0.3-0.3,0.7-0.4,1.1c0,0.4,0,0.8,0.1,1.2c0.3,1.5,0.7,2.9,1.2,4.4c0.2,0.5,0.4,1,0.8,1.4c0.8,0.9,2.2,1,3.5,1.1
	c4.5,0.3,9,0.3,13.4,0c1.3-0.1,3-0.5,3.3-1.8c0-0.4,0-0.7-0.1-1.1c-0.1-0.4-0.3-0.7-0.5-1c-1.4-2-3.4-3.6-5.6-4.6
	C218.6,250.6,216.3,248.8,214.1,249.3z"/>
<path fill="#FC8EAC" d="M134.9,108.9c-6.1,2.5-10.4,8-13.7,13.7c-8,13.7-11.2,29.6-14.3,45.2c-0.6,3.2-1.3,6.5-1,9.8
	c0.1,1.4,0.4,2.8,0.9,4c2,4.8,7.4,7.4,12.6,7.7c4.6,0.3,9.1-0.8,13.7-1.5c3.8-0.5,7.7-0.7,11.4-1.6c3.7-0.9,7.4-2.7,9.7-5.8
	c2.7-3.6,3.2-8.3,3.5-12.7l2.1-24.1c0.6-7.2,1.2-14.8-1.6-21.5c-2-4.5-5.4-8.3-9.6-10.7C144.5,108.9,139.4,107,134.9,108.9z"/>
<linearGradient id="SVGID_00000096748291137301017900000008115691604079582890_" gradientUnits="userSpaceOnUse" x1="103.0647" y1="141.9686" x2="153.6557" y2="167.2636" gradientTransform="matrix(1 0 0 -1 0 308)">
	<stop  offset="1.000000e-02" style="stop-color:#000000"/>
	<stop  offset="0.13" style="stop-color:#000000;stop-opacity:0.69"/>
	<stop  offset="1" style="stop-color:#000000;stop-opacity:0"/>
</linearGradient>
<path fill="url(#SVGID_00000096748291137301017900000008115691604079582890_)" d="M159.9,143.4l-0.4,4.9c-0.5,6.4-1.1,12.8-1.6,19.2
	c-0.3,3.3-0.6,6.7-1.8,9.7c-0.4,1.1-1,2.1-1.7,3.1c-2.3,3.1-6,4.9-9.7,5.8s-7.6,1.1-11.4,1.6c-4.6,0.7-9.1,1.8-13.7,1.5
	c-5.2-0.3-10.6-2.9-12.6-7.7c-0.5-1.3-0.8-2.7-0.9-4c-0.3-3.3,0.4-6.6,1-9.8c3.1-15.6,6.4-31.5,14.3-45.2
	c3.3-5.7,7.7-11.2,13.8-13.7c4.5-1.9,9.6,0.1,13.7,2.4c4.3,2.4,7.7,6.2,9.6,10.7C161.1,128.6,160.5,136.1,159.9,143.4z"/>
<linearGradient id="SVGID_00000151502316561342313620000005332412979108707739_" gradientUnits="userSpaceOnUse" x1="195.1089" y1="147.3027" x2="118.7619" y2="155.8607" gradientTransform="matrix(1 0 0 -1 0 308)">
	<stop  offset="1.000000e-02" style="stop-color:#000000"/>
	<stop  offset="0.13" style="stop-color:#000000;stop-opacity:0.69"/>
	<stop  offset="1" style="stop-color:#000000;stop-opacity:0"/>
</linearGradient>
<path fill="url(#SVGID_00000151502316561342313620000005332412979108707739_)" d="M159.7,141.3c-0.1,2.3-0.2,4.7-0.3,7
	c-0.5,6.4-1.1,12.8-1.6,19.2c-0.3,3.3-0.6,6.7-1.8,9.7c-2.2,2.2-5.5,2.9-8.6,3.4c-0.2,0.1-0.4,0.1-0.5,0.1c-0.2,0-0.4-0.1-0.5-0.2
	c-0.1-0.1-0.3-0.3-0.3-0.4c-0.1-0.2-0.1-0.4-0.1-0.5c-0.6-7.6,2-15,2.5-22.6c0.3-5.5-0.4-10.9-2.3-16.1c-1-2.9-7.2-11.3-0.2-11
	c1.5,0.2,2.9,0.7,4.1,1.5c3,1.8,5.8,3.9,8.2,6.4c0.5,0.5,1,1.1,1.3,1.7C159.7,140,159.8,140.7,159.7,141.3z"/>
<path fill="#F5BBB9" d="M160.8,107.5c-0.2-0.4-0.3-0.9-0.2-1.3c0-0.4,0.1-0.9,0.4-1.3c0.5-0.5,1.2-0.9,1.9-1
	c1.1-0.3,2.3-0.6,3.4-0.8c0.5-0.1,1-0.2,1.6-0.2c1.3,0.1,2.2,1.2,3,2.1c0.9,0.9,1.6,2,2.1,3.2c0.3,1.1,0.4,2.3,0.3,3.5l-0.1,2.7
	c0,0.5-0.1,1-0.2,1.4c-0.2,0.5-0.6,0.9-1,1.3c-0.9,0.6-1.8,0.9-2.9,1c-1.2,0.1-2.9,0-3.7-1c-0.5-0.7-0.3-1.8-0.7-2.6
	C163.6,111.9,161.6,110,160.8,107.5z"/>
<path fill="#2E2E3F" d="M108.5,184.3h-0.3l0.2-1.1c-1.3,11.6,2.5,25.6,14.9,29c10.7,3,21,3.1,31.3-0.4c8.4-2.8,16.3-8.3,22.8-14.3
	c5.6-5.1,9.9-11.5,15.7-16.5c1.3,2.1,3.3,3.6,4.8,5.6c1.8,2.5,2,5.2,3,8c1.1,3,2.9,5.5,4.2,8.4c2.6,5.8,3.7,8.5,10.3,8.5
	c2.2,0,3.2,0.4,4.6-1.3c2.4-2.7,1.5-10.3,1.3-13.6c-0.6-11.4-2.3-23.4-6.3-34.2c-2.2-5.9-4.9-11.8-9.4-16.3
	c-6-6.1-12.8-3.6-19.3,0.2c-7.9,4.7-15,11.7-21.6,18.2c-2.7,2.7-4.5,5.1-7.7,7.3c-3.6,2.5-7.2,4.3-11,6.4
	C135,184.2,120.5,184.3,108.5,184.3z"/>
<path fill="#FC8EAC" d="M199.7,241.9c-0.1,1.1-0.3,2.2-0.6,3.3c-2.1,7.7-9.6,13-17.3,14.8s-15.9,0.8-23.8-0.2
	c-17.7-2.4-117.6-9.3-105.8-126.5c1.4-14.1,10-32.8,23.5-35.5c2.6-0.5,5.2-0.4,7.7,0.2c28,6.9,6.3,57,44.8,74.7
	c11.4,5.3,21,14.1,32.7,18.6c21,8.1,33.7,31.4,33.7,31.4C197.4,228.8,200.2,235.4,199.7,241.9z"/>
<path fill="#F5BBB9" d="M206,130.4c2.6,2.1,3.3,5.7,3.4,9.1c0.1,0.7-0.1,1.4-0.5,2c-0.3,0.3-0.6,0.5-0.9,0.7
	c-1.9,1.1-4.1,2.3-6.2,1.6c-1.8-0.6-3-2.5-4.8-3.2c-1.5-0.6-3.3-0.4-4.5-1.5c-0.5-0.5-0.8-1.2-1-1.9
	C189.3,128.3,200.4,125.7,206,130.4z"/>
<path fill="#FC8EAC" d="M167.5,125.9c0.9,0.8,1.9,1.4,3,1.9c1.2,0.3,2.4,0.4,3.7,0.3c7.1-0.6,14.3-2.9,21.2-1c1,0.2,1.9,0.7,2.6,1.4
	c0.6,0.8,0.9,1.8,0.8,2.8c0,4.9-4,9.1-8.4,11.3c-5.1,2.6-10.9,3.4-16.5,4.3c-3.8,0.6-7.7,1.1-11.6,0.8c-1.8-0.1-3.5-0.6-5-1.5
	c-33.5-24.2-21.8-27.8-19.5-34.7c1.2-3.6,16.1,3.6,19.6,6.4C160.8,120.6,164.1,123.2,167.5,125.9z"/>
<linearGradient id="SVGID_00000000914077023361816010000013306557351435778974_" gradientUnits="userSpaceOnUse" x1="56.9238" y1="56.3496" x2="165.8994" y2="165.9096" gradientTransform="matrix(1 0 0 -1 0 308)">
	<stop  offset="1.000000e-02" style="stop-color:#000000"/>
	<stop  offset="0.13" style="stop-color:#000000;stop-opacity:0.69"/>
	<stop  offset="1" style="stop-color:#000000;stop-opacity:0"/>
</linearGradient>
<path fill="url(#SVGID_00000000914077023361816010000013306557351435778974_)" d="M199.7,241.9c-0.1,1.1-0.3,2.2-0.6,3.3
	c-2.1,7.7-9.6,13-17.3,14.8s-15.9,0.8-23.8-0.2c-17.7-2.4-117.6-9.3-105.8-126.5c1.4-14.1,10-32.8,23.5-35.5
	c0.6,3.7-2.6,8.1-3.9,12.1c-3.9,13-4.7,26.7-2.3,40c1.4,7.6,3.8,14.9,7.2,21.9c4.7,9.4,11.1,17.8,17.8,25.9
	c5,6.1,10.3,12.1,17.1,16.2c6.1,3.7,13.2,5.5,20.1,7c9.2,2,18.5,3.4,27.9,4.3c12.6,1.2,26.6,1.9,35.8,10.7
	C197.3,237.6,198.7,239.6,199.7,241.9z"/>
<path fill="#FC8EAC" d="M222.9,46.1c0,2.7-0.7,5.5-1.9,7.9l-7,17.5h-17.2L190.2,53c-1-2.2-1.5-4.5-1.5-6.9c0.1-4.5,1.9-8.7,5.1-11.8
	c3.2-3.1,7.5-4.9,11.9-4.9c4.5,0,8.7,1.7,11.9,4.9C220.9,37.4,222.8,41.7,222.9,46.1z"/>
<radialGradient id="SVGID_00000102505134840688427530000018257275149930289837_" cx="-143.155" cy="537.4269" r="1.0001" gradientTransform="matrix(19.2474 0 0 -19.2474 2961.1914 10394.3584)" gradientUnits="userSpaceOnUse">
	<stop  offset="0.34" style="stop-color:#FFFFFF"/>
	<stop  offset="1" style="stop-color:#FFFFFF;stop-opacity:0.39"/>
</radialGradient>
<path opacity="0.69" fill="url(#SVGID_00000102505134840688427530000018257275149930289837_)" enable-background="new    " d="
	M222.9,46.1c0,2.7-0.7,5.5-1.9,7.9l-7,17.5h-17.2L190.2,53c-1-2.2-1.5-4.5-1.5-6.9c0.1-4.5,1.9-8.7,5.1-11.8
	c3.2-3.1,7.5-4.9,11.9-4.9c4.5,0,8.7,1.7,11.9,4.9C220.9,37.4,222.8,41.7,222.9,46.1z"/>
<path fill="none" stroke="#FFFFFF" stroke-width="0.6501" stroke-miterlimit="10" d="M203,71.8c-2.5-5.2-3.8-11-3.9-16.8
	c0-1.3,0.2-2.8,1.3-3.5c1.4-0.8,3.1,0.4,3.9,1.8c0.5,0.9,0.8,1.9,0.8,3c0.1,1-0.1,2.1-0.4,3.1c-0.8-1.2-1.3-2.6-1.3-4.1
	c-0.2-1.1-0.1-2.2,0.2-3.2c0.2-0.5,0.5-1,0.9-1.3c0.4-0.3,0.9-0.6,1.5-0.6c1.6-0.1,2.8,1.8,2.9,3.5c0.2,1.9-0.2,3.8-1.2,5.4
	c-0.4-1.1-0.4-2.2-0.2-3.3c0.2-1.1,0.7-2.1,1.5-3c0.5-0.6,1.2-1,1.9-1.2c0.4-0.1,0.8-0.1,1.1,0.1c0.4,0.1,0.7,0.4,0.9,0.7
	c0.2,0.4,0.4,0.8,0.4,1.2c0.4,3.1-0.6,6.3-2,9.2c-1.4,2.9-3,5.6-3.8,8.7"/>
<path fill="#FC8EAC" d="M212.9,71.3h-15.4c-1.1,0-1.9,0.9-1.9,1.9v5.4c0,1.1,0.9,1.9,1.9,1.9h15.4c1.1,0,1.9-0.9,1.9-1.9v-5.4
	C214.8,72.2,213.9,71.3,212.9,71.3z"/>
<linearGradient id="SVGID_00000179612496181492791030000014651508031663958937_" gradientUnits="userSpaceOnUse" x1="195.515" y1="232.0909" x2="214.811" y2="232.0909" gradientTransform="matrix(1 0 0 -1 0 308)">
	<stop  offset="1.000000e-02" style="stop-color:#000000"/>
	<stop  offset="0.13" style="stop-color:#000000;stop-opacity:0.69"/>
	<stop  offset="1" style="stop-color:#000000;stop-opacity:0"/>
</linearGradient>
<path fill="url(#SVGID_00000179612496181492791030000014651508031663958937_)" d="M212.9,71.3h-15.4c-1.1,0-1.9,0.9-1.9,1.9v5.4
	c0,1.1,0.9,1.9,1.9,1.9h15.4c1.1,0,1.9-0.9,1.9-1.9v-5.4C214.8,72.2,213.9,71.3,212.9,71.3z"/>
<path fill="#FC8EAC" d="M214.4,74.4h-18.4c-0.9,0-1.6,0.7-1.6,1.6v0.1c0,0.9,0.7,1.6,1.6,1.6h18.4c0.9,0,1.6-0.7,1.6-1.6V76
	C216.1,75.1,215.3,74.4,214.4,74.4z"/>
<linearGradient id="SVGID_00000031895348190187779140000011568250880994659505_" gradientUnits="userSpaceOnUse" x1="194.486" y1="231.9716" x2="216.062" y2="231.9716" gradientTransform="matrix(1 0 0 -1 0 308)">
	<stop  offset="1.000000e-02" style="stop-color:#000000"/>
	<stop  offset="0.13" style="stop-color:#000000;stop-opacity:0.69"/>
	<stop  offset="1" style="stop-color:#000000;stop-opacity:0"/>
</linearGradient>
<path fill="url(#SVGID_00000031895348190187779140000011568250880994659505_)" d="M214.4,74.4h-18.4c-0.9,0-1.6,0.7-1.6,1.6v0.1
	c0,0.9,0.7,1.6,1.6,1.6h18.4c0.9,0,1.6-0.7,1.6-1.6V76C216.1,75.1,215.3,74.4,214.4,74.4z"/>
</svg>
