<svg width="157" height="247" viewBox="0 0 157 247" fill="none" xmlns="http://www.w3.org/2000/svg">
<path d="M42.2878 67.3302L41.7441 68.1539C41.5794 68.3928 41.4064 68.6069 41.2417 68.8293C40.904 69.2741 40.5498 69.653 40.1956 70.1061C39.479 70.9297 38.7542 71.7534 37.9799 72.4782C36.4318 73.9659 34.7803 75.3422 33.0378 76.5967C31.2976 77.8508 29.4668 78.9741 27.5603 79.9573C26.5966 80.4268 25.6412 80.9128 24.6445 81.3081L23.1537 81.9012L22.7336 82.0577C22.5029 82.1318 22.2888 82.2142 22.0334 82.2718C21.5353 82.3961 21.023 82.4543 20.5096 82.4448C19.531 82.4381 18.5681 82.1981 17.7009 81.7447C17.0035 81.3804 16.3627 80.9171 15.7982 80.3691C14.9039 79.4871 14.1311 78.4899 13.5001 77.4039C12.4212 75.5234 11.5406 73.5359 10.8726 71.4734C9.57679 67.5852 8.65018 63.5837 8.10498 59.5217L11.548 58.7639C12.174 60.5678 12.8164 62.4293 13.5248 64.225C14.2332 66.0206 14.9415 67.808 15.7652 69.5048C16.515 71.1425 17.4081 72.7109 18.4339 74.1915C18.8416 74.8053 19.3322 75.3597 19.8919 75.8389C20.0527 75.9708 20.2334 76.0765 20.4273 76.1519C20.5426 76.1519 20.5343 76.1519 20.4767 76.1519H20.419L20.6908 76.0201L21.9181 75.427C22.7418 75.0317 23.5243 74.6033 24.315 74.1256C25.8748 73.191 27.3817 72.1708 28.8288 71.0698C30.2567 69.9476 31.6129 68.7372 32.8896 67.4455C33.532 66.8196 34.1416 66.1524 34.7264 65.4769C35.0147 65.1392 35.303 64.8015 35.5501 64.4638L35.9454 63.9614L36.2667 63.5331L42.2878 67.3302Z" fill="#B97964"/>
<path d="M32.313 66.9761L36.4891 76.9921L33.4662 78.8783L28.7712 69.7931L32.313 66.9761Z" fill="#263238"/>
<path d="M44.1328 58.5415C37.321 58.4509 30.402 67.0749 30.2291 67.2891L35.6159 79.9573C35.6159 79.9573 47.6005 70.2296 48.2018 66.4242C48.8278 62.4623 48.4489 58.5992 44.1328 58.5415Z" fill="#23CDBD"/>
<path opacity="0.3" d="M44.1328 58.5415C37.321 58.4509 30.402 67.0749 30.2291 67.2891L35.6159 79.9573C35.6159 79.9573 47.6005 70.2296 48.2018 66.4242C48.8278 62.4623 48.4489 58.5992 44.1328 58.5415Z" fill="#23CDBD"/>
<path d="M10.9879 57.4543L6.2764 53.7889L5.32092 61.0044C5.32092 61.0044 9.9006 62.8 12.3387 61.2433L12.2728 59.9254C12.2482 59.4455 12.1208 58.9764 11.8991 58.5501C11.6774 58.1237 11.3666 57.75 10.9879 57.4543Z" fill="#B97964"/>
<path d="M0 53.4265L0.296526 58.904L5.34569 61.0044L6.30116 53.7889L0 53.4265Z" fill="#B97964"/>
<path d="M103.24 56.8695L110.522 55.0492L105.431 49.8517C105.431 49.8517 100.712 51.7791 101.865 55.8976L103.24 56.8695Z" fill="#B97964"/>
<path d="M114.138 53.756L113.536 48.0396L105.39 49.8517L110.48 55.0492L114.138 53.756Z" fill="#B97964"/>
<path d="M79.4936 240.065L72.7147 240.715L67.056 224.719L73.8349 224.06L79.4936 240.065Z" fill="#B97964"/>
<path d="M152.06 206.434L147.068 211.277L134.235 201.261L139.235 196.418L152.06 206.434Z" fill="#B97964"/>
<path d="M145.627 210.338L149.465 203.526C149.53 203.409 149.635 203.319 149.761 203.274C149.886 203.229 150.024 203.23 150.149 203.279L155.981 205.536C156.125 205.598 156.254 205.691 156.36 205.807C156.467 205.923 156.547 206.06 156.597 206.209C156.647 206.358 156.664 206.516 156.649 206.673C156.634 206.829 156.586 206.981 156.508 207.117C155.132 209.473 154.35 210.536 152.661 213.534C151.623 215.379 149.597 219.604 148.164 222.149C146.731 224.695 144.136 223.41 144.507 222.224C146.154 216.894 145.874 213.921 145.429 211.565C145.348 211.146 145.418 210.711 145.627 210.338Z" fill="#263238"/>
<path d="M71.3638 238.64H79.6006C79.7485 238.643 79.8915 238.693 80.0086 238.784C80.1258 238.874 80.2108 239 80.2513 239.142L82.0469 245.674C82.0924 245.828 82.1007 245.991 82.0713 246.149C82.0418 246.308 81.9754 246.457 81.8775 246.584C81.7795 246.712 81.6528 246.815 81.5076 246.884C81.3624 246.953 81.2029 246.987 81.042 246.984C78.1509 246.934 76.7424 246.761 73.11 246.761C70.8778 246.761 63.6047 247 60.5159 247C57.4271 247 56.867 243.944 58.119 243.705C63.72 242.462 68.4479 240.756 70.1694 239.126C70.4881 238.813 70.9172 238.638 71.3638 238.64Z" fill="#263238"/>
<path d="M67.0642 224.719L69.9718 232.973H76.9896L73.8431 224.06L67.0642 224.719Z" fill="#A76755"/>
<path d="M139.243 196.418L134.244 201.269L140.858 206.425L145.858 201.582L139.243 196.418Z" fill="#A76755"/>
<path d="M37.5023 60.7408C37.5023 60.7408 34.7018 62.8741 53.5723 99.701L80.4738 91.0111C76.4872 80.2126 74.2962 73.4667 72.237 49.3081C68.2468 49.7495 64.2938 50.479 60.4089 51.4909C56.2549 52.5362 52.1743 53.8543 48.1937 55.4363C43.0539 57.6438 37.5023 60.7408 37.5023 60.7408Z" fill="#23CDBD"/>
<path opacity="0.3" d="M37.5023 60.7408C37.5023 60.7408 34.7018 62.8741 53.5723 99.701L80.4738 91.0111C76.4872 80.2126 74.2962 73.4667 72.237 49.3081C68.2468 49.7495 64.2938 50.479 60.4089 51.4909C56.2549 52.5362 52.1743 53.8543 48.1937 55.4363C43.0539 57.6438 37.5023 60.7408 37.5023 60.7408Z" fill="#23CDBD"/>
<path d="M54.7173 38.1225C55.2115 42.3068 56.7682 49.7529 60.3677 51.4909C60.3677 51.4909 60.5736 55.8234 53.2758 58.1791C45.2449 60.7737 48.1525 55.4363 48.1525 55.4363C52.1968 52.9653 51.0272 49.7529 49.281 46.9524L54.7173 38.1225Z" fill="#B97964"/>
<path d="M41.217 58.7475C43.2021 57.7179 45.7308 56.4659 48.1524 55.4528C52.1382 53.8416 56.2341 52.5176 60.4088 51.4908C62.7563 50.8484 65.1285 50.3706 67.1301 50.0329C67.3195 50.593 66.7512 52.0427 65.3592 54.0443C60.9525 57.7014 51.5542 62.4541 44.6271 62.2811C41.5959 61.1526 40.8381 59.9583 41.217 58.7475Z" fill="#B97964"/>
<path d="M65.351 54.0443C62.3589 58.055 58.7829 61.595 54.7419 64.5462C51.3011 64.1273 47.9102 63.3686 44.6189 62.2811C51.5131 62.4541 60.9113 57.7014 65.351 54.0443Z" fill="#263238"/>
<path d="M52.5015 41.722L49.2809 46.9359C49.7014 47.5857 50.0626 48.2722 50.3599 48.9869C51.9578 48.2044 53.9923 45.8898 53.6052 44.0448C53.3754 43.2121 53.0019 42.426 52.5015 41.722Z" fill="#A76755"/>
<path d="M56.348 30.3963C56.7599 37.2906 57.0893 40.1982 54.0582 44.1354C49.5032 50.0494 40.9452 49.0775 38.4741 42.4221C36.2584 36.4504 35.9537 26.1791 42.3207 22.6537C43.7197 21.8676 45.2963 21.4517 46.9011 21.4456C48.5058 21.4395 50.0855 21.8433 51.4905 22.6188C52.8954 23.3943 54.0791 24.5158 54.9291 25.8768C55.7792 27.2379 56.2676 28.7936 56.348 30.3963Z" fill="#B97964"/>
<path d="M69.9647 18.0406C71.522 11.1917 67.2323 4.37705 60.3834 2.81975C53.5344 1.26245 46.7198 5.55218 45.1625 12.4011C43.6052 19.2501 47.8949 26.0647 54.7439 27.622C61.5928 29.1793 68.4074 24.8896 69.9647 18.0406Z" fill="#263238"/>
<path d="M54.3878 20.7428C57.0071 22.4725 58.3085 25.1248 57.2954 26.6651C56.2822 28.2054 53.3335 28.0571 50.7059 26.3274C48.0784 24.5976 46.7852 21.9454 47.7983 20.4051C48.8114 18.8648 51.7602 19.0131 54.3878 20.7428Z" fill="#23CDBD"/>
<path opacity="0.6" d="M54.3878 20.7428C57.0071 22.4725 58.3085 25.1248 57.2954 26.6651C56.2822 28.2054 53.3335 28.0571 50.7059 26.3274C48.0784 24.5976 46.7852 21.9454 47.7983 20.4051C48.8114 18.8648 51.7602 19.0131 54.3878 20.7428Z" fill="#FAFAFA"/>
<path d="M52.9957 35.0996C53.6794 33.5181 51.2989 28.8231 51.8096 27.0687C50.4423 25.792 36.5797 30.3058 37.7 27.011C38.7707 23.8481 42.1478 19.6556 49.8575 21.41C58.0943 23.288 58.8109 30.4128 57.8884 32.6862C56.9659 34.9596 55.6562 37.3235 55.6562 37.3235L52.9957 35.0996Z" fill="#263238"/>
<path d="M58.1602 36.4422C58.1774 37.7764 57.6684 39.0636 56.7435 40.0252C55.4997 41.2855 54.0006 40.3794 53.6135 38.7485C53.2593 37.2824 53.4899 34.8525 55.0878 34.21C55.4401 34.0728 55.8212 34.0263 56.1961 34.0747C56.571 34.1231 56.9277 34.2649 57.2336 34.4871C57.5394 34.7093 57.7845 35.0048 57.9464 35.3464C58.1083 35.688 58.1818 36.0648 58.1602 36.4422Z" fill="#B97964"/>
<path d="M53.5722 99.7009C53.5722 99.7009 41.1017 160.522 48.0535 180.578C55.2855 201.442 67.0559 230.568 67.0559 230.568L78.052 229.942C78.052 229.942 68.9915 193.139 66.7594 176.518C63.7035 153.603 76.7918 92.2384 76.7918 92.2384L53.5722 99.7009Z" fill="#0072FF"/>
<path opacity="0.6" d="M53.5722 99.7009C53.5722 99.7009 41.1017 160.522 48.0535 180.578C55.2855 201.442 67.0559 230.568 67.0559 230.568L78.052 229.942C78.052 229.942 68.9915 193.139 66.7594 176.518C63.7035 153.603 76.7918 92.2384 76.7918 92.2384L53.5722 99.7009Z" fill="#FAFAFA"/>
<path d="M78.917 230.205L66.1911 230.938L64.1484 225.93L78.1839 224.472L78.917 230.205Z" fill="#0072FF"/>
<path opacity="0.2" d="M78.917 230.205L66.1911 230.938L64.1484 225.93L78.1839 224.472L78.917 230.205Z" fill="black"/>
<path d="M66.7594 104.379C64.8485 111.447 66.4464 122.039 70.0541 129.469C70.9355 123.703 71.8745 118.118 72.764 113.119C70.9108 109.536 68.868 106.356 66.7594 104.379Z" fill="#0072FF"/>
<path opacity="0.4" d="M66.7594 104.379C64.8485 111.447 66.4464 122.039 70.0541 129.469C70.9355 123.703 71.8745 118.118 72.764 113.119C70.9108 109.536 68.868 106.356 66.7594 104.379Z" fill="#FAFAFA"/>
<path d="M60.6724 97.4029C60.6724 97.4029 79.1888 141.659 91.4534 165.958C101.338 185.611 138.016 206.178 138.016 206.178L144.606 199.194C144.606 199.194 117.193 174.854 110.357 161.527C88.4799 118.868 92.9772 100.236 80.4902 91.0111L60.6724 97.4029Z" fill="#0072FF"/>
<path opacity="0.6" d="M60.6724 97.4029C60.6724 97.4029 79.1888 141.659 91.4534 165.958C101.338 185.611 138.016 206.178 138.016 206.178L144.606 199.194C144.606 199.194 117.193 174.854 110.357 161.527C88.4799 118.868 92.9772 100.236 80.4902 91.0111L60.6724 97.4029Z" fill="#FAFAFA"/>
<path d="M145.833 198.197L136.772 207.826L131.04 204.811L141.476 194.169L145.833 198.197Z" fill="#0072FF"/>
<path opacity="0.2" d="M145.833 198.197L136.772 207.826L131.04 204.811L141.476 194.169L145.833 198.197Z" fill="black"/>
<path d="M80.3667 89.3061L82.3517 91.3241C82.5082 91.4806 82.3517 91.7442 82.0387 91.843L53.8276 100.904C53.5805 100.986 53.3416 100.904 53.2758 100.78L52.2626 98.4572C52.1885 98.2925 52.3532 98.0865 52.6168 97.9959L79.856 89.2073C79.9424 89.1782 80.0348 89.172 80.1244 89.1893C80.2139 89.2066 80.2974 89.2469 80.3667 89.3061Z" fill="#263238"/>
<path d="M77.7061 93.5315L78.4309 93.3009C78.5792 93.2515 78.6616 93.1362 78.6286 93.0538L77.2778 90.0309C77.2778 89.9485 77.0801 89.9156 76.9401 89.9568L76.207 90.1956C76.067 90.1956 75.9764 90.3521 76.0176 90.4427L77.3684 93.4574C77.3931 93.548 77.5414 93.581 77.7061 93.5315Z" fill="#0072FF"/>
<path opacity="0.6" d="M77.7061 93.5315L78.4309 93.3009C78.5792 93.2515 78.6616 93.1362 78.6286 93.0538L77.2778 90.0309C77.2778 89.9485 77.0801 89.9156 76.9401 89.9568L76.207 90.1956C76.067 90.1956 75.9764 90.3521 76.0176 90.4427L77.3684 93.4574C77.3931 93.548 77.5414 93.581 77.7061 93.5315Z" fill="#FAFAFA"/>
<path d="M55.961 100.549L56.6941 100.31C56.8341 100.261 56.9247 100.154 56.8835 100.063L55.5327 97.0487C55.4915 96.9581 55.3432 96.9251 55.195 96.9746L54.4619 97.2052C54.3219 97.2546 54.2313 97.3617 54.2724 97.4523L55.6233 100.467C55.6645 100.558 55.8127 100.591 55.961 100.549Z" fill="#0072FF"/>
<path opacity="0.6" d="M55.961 100.549L56.6941 100.31C56.8341 100.261 56.9247 100.154 56.8835 100.063L55.5327 97.0487C55.4915 96.9581 55.3432 96.9251 55.195 96.9746L54.4619 97.2052C54.3219 97.2546 54.2313 97.3617 54.2724 97.4523L55.6233 100.467C55.6645 100.558 55.8127 100.591 55.961 100.549Z" fill="#FAFAFA"/>
<path d="M66.8253 97.0405L67.5501 96.8016C67.6984 96.8016 67.789 96.6451 67.7478 96.5545L66.397 93.5398C66.3558 93.4492 66.1993 93.4163 66.0593 93.4657L65.3262 93.7045C65.1862 93.7457 65.0956 93.861 65.1368 93.9434L66.4876 96.9663C66.5283 97.0135 66.5832 97.0463 66.6441 97.0596C66.705 97.073 66.7686 97.0663 66.8253 97.0405Z" fill="#0072FF"/>
<path opacity="0.6" d="M66.8253 97.0405L67.5501 96.8016C67.6984 96.8016 67.789 96.6451 67.7478 96.5545L66.397 93.5398C66.3558 93.4492 66.1993 93.4163 66.0593 93.4657L65.3262 93.7045C65.1862 93.7457 65.0956 93.861 65.1368 93.9434L66.4876 96.9663C66.5283 97.0135 66.5832 97.0463 66.6441 97.0596C66.705 97.073 66.7686 97.0663 66.8253 97.0405Z" fill="#FAFAFA"/>
<path d="M46.2003 33.5758C46.2662 34.1277 46.0273 34.6219 45.6649 34.663C45.3025 34.7042 44.9483 34.2924 44.8824 33.7323C44.8165 33.1722 45.0554 32.6862 45.4178 32.645C45.7802 32.6038 46.1344 33.0157 46.2003 33.5758Z" fill="#263238"/>
<path d="M39.8992 34.3418C39.9733 34.9019 39.7262 35.3879 39.3638 35.4291C39.0014 35.4703 38.6472 35.0584 38.5813 34.5066C38.5154 33.9547 38.7543 33.4605 39.1167 33.4111C39.4791 33.3616 39.8168 33.757 39.8992 34.3418Z" fill="#263238"/>
<path d="M39.2814 33.4275L37.8976 33.2051C37.8976 33.2051 38.7131 34.1688 39.2814 33.4275Z" fill="#263238"/>
<path d="M41.6865 35.0996C41.3423 36.4301 40.8185 37.7075 40.1298 38.8968C40.44 39.0622 40.7819 39.1595 41.1328 39.1822C41.4836 39.205 41.8353 39.1526 42.1643 39.0285L41.6865 35.0996Z" fill="#A24E3F"/>
<path d="M44.3717 40.9807C44.332 40.9811 44.2935 40.9672 44.2632 40.9415C44.2329 40.9157 44.213 40.8799 44.207 40.8406C44.2043 40.7964 44.2178 40.7527 44.2452 40.7178C44.2725 40.6829 44.3117 40.6592 44.3553 40.6512C45.0492 40.5821 45.7172 40.3507 46.3053 39.9758C46.8933 39.601 47.385 39.0931 47.7406 38.4932C47.7495 38.4729 47.7624 38.4546 47.7785 38.4394C47.7946 38.4242 47.8135 38.4124 47.8343 38.4047C47.8551 38.397 47.8772 38.3936 47.8993 38.3947C47.9214 38.3957 47.9431 38.4012 47.963 38.4108C47.9826 38.4204 48 38.4338 48.0144 38.4503C48.0287 38.4667 48.0396 38.4858 48.0465 38.5065C48.0534 38.5272 48.0561 38.549 48.0545 38.5708C48.0529 38.5925 48.047 38.6137 48.0371 38.6332C47.6629 39.2876 47.1367 39.8425 46.5031 40.251C45.8695 40.6596 45.147 40.9098 44.3965 40.9807H44.3717Z" fill="#263238"/>
<path d="M46.9828 31.599C46.9039 31.598 46.8279 31.5688 46.7687 31.5166C46.4642 31.2349 46.0966 31.0302 45.6968 30.9199C45.2969 30.8095 44.8764 30.7967 44.4706 30.8823C44.4284 30.8948 44.3841 30.8988 44.3404 30.8939C44.2967 30.889 44.2544 30.8754 44.216 30.8539C44.1776 30.8324 44.1439 30.8035 44.1169 30.7687C44.0899 30.734 44.0701 30.6942 44.0587 30.6517C44.0463 30.6101 44.0425 30.5663 44.0475 30.5232C44.0524 30.48 44.0661 30.4383 44.0877 30.4006C44.1092 30.3628 44.1382 30.3299 44.1729 30.3037C44.2076 30.2775 44.2472 30.2586 44.2894 30.2481C44.8 30.1359 45.3301 30.1469 45.8357 30.2801C46.3412 30.4133 46.8079 30.6649 47.197 31.0141C47.2281 31.0448 47.2528 31.0813 47.2697 31.1216C47.2866 31.1619 47.2953 31.2052 47.2953 31.2489C47.2953 31.2926 47.2866 31.3358 47.2697 31.3761C47.2528 31.4164 47.2281 31.453 47.197 31.4836C47.1424 31.5473 47.066 31.5884 46.9828 31.599Z" fill="#263238"/>
<path d="M36.6456 31.7884C36.5968 31.7999 36.5461 31.7999 36.4973 31.7884C36.4213 31.7465 36.3643 31.6769 36.3382 31.594C36.3121 31.5112 36.319 31.4215 36.3573 31.3436C36.5827 30.8726 36.9169 30.4619 37.3322 30.1454C37.7475 29.8289 38.2321 29.6157 38.746 29.5233C38.8322 29.514 38.9185 29.539 38.9864 29.593C39.0542 29.647 39.0981 29.7255 39.1084 29.8116C39.1141 29.8549 39.1112 29.8989 39.0998 29.9411C39.0884 29.9833 39.0687 30.0227 39.0419 30.0572C39.015 30.0917 38.9816 30.1205 38.9435 30.142C38.9055 30.1635 38.8635 30.1771 38.8201 30.1822C38.4135 30.258 38.031 30.4298 37.7043 30.6834C37.3776 30.937 37.1163 31.265 36.9421 31.6401C36.9102 31.6888 36.8659 31.7282 36.8139 31.7543C36.7618 31.7803 36.7037 31.7921 36.6456 31.7884Z" fill="#263238"/>
<path d="M77.7061 55.741L78.0191 56.1364L78.4062 56.6059C78.6698 56.9189 78.9416 57.2401 79.2299 57.5531C79.7983 58.1874 80.3913 58.8134 81.0255 59.4064C82.2674 60.6241 83.5792 61.7682 84.9545 62.8329C86.351 63.8907 87.7997 64.8776 89.2953 65.79C90.0449 66.243 90.8109 66.6713 91.5851 67.0914L92.763 67.6927L93.3313 67.981C93.4714 68.0469 93.6114 68.1127 93.7432 68.1622C94.1636 68.3374 94.6139 68.4297 95.0693 68.434C95.4879 68.41 95.8897 68.2608 96.2225 68.0057C97.3263 67.0907 98.1984 65.928 98.7677 64.6121C99.5322 63.0254 100.147 61.3709 100.604 59.67C101.114 57.9353 101.534 56.1759 101.865 54.3984L105.382 54.6208C105.492 58.6757 104.913 62.7198 103.669 66.5807C103.316 67.6332 102.861 68.6485 102.309 69.6118C101.698 70.7098 100.907 71.698 99.9702 72.5359C98.8546 73.5265 97.491 74.1956 96.0248 74.4716C94.5996 74.7202 93.1352 74.6184 91.7581 74.175C91.4369 74.0844 91.1404 73.9691 90.8356 73.8538L90.119 73.5573L88.7187 72.9725C87.788 72.5524 86.8737 72.1488 85.9759 71.6381C84.1738 70.6872 82.4375 69.6168 80.7784 68.434C79.1172 67.2361 77.5351 65.9319 76.0423 64.5297C75.301 63.8214 74.5843 63.0718 73.8842 62.2975C73.5383 61.9022 73.1923 61.4739 72.8628 61.095L72.3604 60.4443C72.1874 60.2136 72.0556 60.0324 71.825 59.703L77.7061 55.741Z" fill="#B97964"/>
<path d="M83.546 60.0819L78.3898 68.7388L75.8776 66.3665L80.6384 57.6932L83.546 60.0819Z" fill="#263238"/>
<path d="M72.2698 49.3081C75.2351 49.2587 82.434 57.7591 82.434 57.7591L76.1741 68.6564C76.1741 68.6564 68.2008 61.6304 68.2091 57.7838C68.2173 53.7725 68.8927 49.4069 72.2698 49.3081Z" fill="#23CDBD"/>
<path opacity="0.3" d="M72.2698 49.3081C75.2351 49.2587 82.434 57.7591 82.434 57.7591L76.1741 68.6564C76.1741 68.6564 68.2008 61.6304 68.2091 57.7838C68.2173 53.7725 68.8927 49.4069 72.2698 49.3081Z" fill="#23CDBD"/>
<path d="M144.276 214.036C144.047 214.027 143.827 213.943 143.65 213.797C143.567 213.742 143.501 213.665 143.459 213.575C143.417 213.485 143.401 213.385 143.411 213.287C143.485 212.397 145.718 211.227 145.965 211.096C145.992 211.078 146.023 211.069 146.055 211.069C146.088 211.069 146.119 211.078 146.146 211.096C146.171 211.116 146.189 211.143 146.199 211.174C146.21 211.205 146.211 211.237 146.204 211.269C145.948 212.158 145.38 213.69 144.556 213.962C144.468 214.003 144.373 214.028 144.276 214.036ZM145.767 211.565C144.894 212.059 143.782 212.834 143.741 213.295C143.734 213.339 143.742 213.385 143.763 213.425C143.783 213.465 143.816 213.497 143.856 213.517C143.933 213.592 144.029 213.645 144.133 213.669C144.238 213.694 144.347 213.69 144.449 213.657C144.902 213.526 145.38 212.751 145.767 211.582V211.565Z" fill="#0072FF"/>
<path d="M143.971 211.878C143.609 211.909 143.248 211.819 142.942 211.623C142.843 211.537 142.776 211.421 142.752 211.292C142.728 211.163 142.748 211.03 142.81 210.914C142.854 210.795 142.926 210.688 143.019 210.6C143.112 210.513 143.223 210.449 143.345 210.412C144.301 210.091 146.047 211.055 146.121 211.096C146.148 211.11 146.171 211.132 146.187 211.158C146.202 211.184 146.211 211.213 146.212 211.244C146.211 211.272 146.203 211.3 146.188 211.324C146.174 211.349 146.154 211.369 146.129 211.384C145.457 211.71 144.719 211.879 143.971 211.878ZM143.798 210.676C143.681 210.674 143.565 210.691 143.453 210.725C143.377 210.749 143.307 210.789 143.248 210.843C143.19 210.898 143.144 210.964 143.115 211.038C143.032 211.236 143.115 211.318 143.115 211.376C143.485 211.689 144.853 211.557 145.635 211.236C145.065 210.933 144.441 210.743 143.798 210.676Z" fill="#0072FF"/>
<path d="M67.7067 240.007C67.1304 240.055 66.5537 239.92 66.0593 239.62C65.9299 239.525 65.8245 239.401 65.7516 239.258C65.6787 239.115 65.6402 238.957 65.6392 238.796C65.6295 238.709 65.6435 238.621 65.6798 238.541C65.716 238.461 65.7732 238.393 65.8451 238.343C66.5947 237.832 69.4117 239.117 69.9635 239.373C69.9951 239.388 70.0209 239.413 70.0372 239.444C70.0535 239.475 70.0595 239.511 70.0542 239.546C70.0513 239.579 70.0378 239.611 70.0155 239.636C69.9933 239.661 69.9635 239.679 69.9306 239.686C69.202 239.867 68.4569 239.975 67.7067 240.007ZM66.3888 238.582C66.2775 238.572 66.1658 238.595 66.0675 238.648C66.0426 238.665 66.0232 238.689 66.0115 238.716C65.9998 238.744 65.9964 238.775 66.0016 238.804C66.0045 238.912 66.0319 239.018 66.0819 239.114C66.1318 239.209 66.203 239.292 66.2899 239.356C66.9406 239.85 68.4892 239.661 69.3952 239.496C68.4448 239.042 67.4312 238.734 66.3888 238.582Z" fill="#0072FF"/>
<path d="M69.9306 239.719H69.8647C68.9339 239.34 67.0559 237.832 67.163 237.05C67.163 236.877 67.2948 236.663 67.7231 236.613C69.3705 236.399 70.0624 239.406 70.0871 239.529C70.0939 239.559 70.093 239.589 70.0843 239.618C70.0756 239.647 70.0596 239.673 70.0377 239.694C70.0054 239.713 69.968 239.722 69.9306 239.719ZM67.8714 236.926H67.7643C67.5913 236.926 67.4925 237.001 67.4843 237.083C67.4266 237.528 68.7198 238.73 69.6753 239.241C69.4693 238.533 68.8598 236.926 67.8714 236.926Z" fill="#0072FF"/>
<path d="M45.5826 32.6532L44.1988 32.4308C44.1988 32.4308 45.0142 33.3946 45.5826 32.6532Z" fill="#263238"/>
</svg>
